<?xml version="1.0" encoding="UTF-8"?><svg xmlns="http://www.w3.org/2000/svg" xmlns:xlink="http://www.w3.org/1999/xlink" fill-opacity="1" color-rendering="auto" color-interpolation="auto" text-rendering="auto" stroke="black" stroke-linecap="square" width="481" stroke-miterlimit="10" shape-rendering="auto" stroke-opacity="1" fill="black" stroke-dasharray="none" font-weight="normal" stroke-width="1" height="330" font-family="'Dialog'" font-style="normal" stroke-linejoin="miter" font-size="12px" stroke-dashoffset="0" image-rendering="auto">
  <!--Generated by ySVG 2.5-->
  <defs id="genericDefs"/>
  <g>
    <defs id="defs1">
      <clipPath clipPathUnits="userSpaceOnUse" id="clipPath1">
        <path d="M0 0 L481 0 L481 330 L0 330 L0 0 Z"/>
      </clipPath>
      <clipPath clipPathUnits="userSpaceOnUse" id="clipPath2">
        <path d="M433 217 L914 217 L914 547 L433 547 L433 217 Z"/>
      </clipPath>
      <clipPath clipPathUnits="userSpaceOnUse" id="clipPath3">
        <path d="M-151.3967 -40.7021 L329.6033 -40.7021 L329.6033 289.2979 L-151.3967 289.2979 L-151.3967 -40.7021 Z"/>
      </clipPath>
      <clipPath clipPathUnits="userSpaceOnUse" id="clipPath4">
        <path d="M-272.2607 -225.6704 L208.7393 -225.6704 L208.7393 104.3296 L-272.2607 104.3296 L-272.2607 -225.6704 Z"/>
      </clipPath>
      <clipPath clipPathUnits="userSpaceOnUse" id="clipPath5">
        <path d="M-152.2607 -225.3414 L328.7393 -225.3414 L328.7393 104.6586 L-152.2607 104.6586 L-152.2607 -225.3414 Z"/>
      </clipPath>
      <clipPath clipPathUnits="userSpaceOnUse" id="clipPath6">
        <path d="M-32.2607 -40.7021 L448.7393 -40.7021 L448.7393 289.2979 L-32.2607 289.2979 L-32.2607 -40.7021 Z"/>
      </clipPath>
    </defs>
    <g fill="white" text-rendering="geometricPrecision" shape-rendering="geometricPrecision" transform="translate(-433,-217)" stroke="white">
      <rect x="433" width="481" height="330" y="217" clip-path="url(#clipPath2)" stroke="none"/>
    </g>
    <g text-rendering="geometricPrecision" shape-rendering="geometricPrecision" transform="matrix(1,0,0,1,151.3967,40.7021)">
      <g clip-path="url(#clipPath3)">
        <svg xml:space="preserve" opacity="1" writing-mode="lr-tb" stop-color="rgb(0, 0, 0)" shape-rendering="auto" glyph-orientation-horizontal="0deg" color-profile="auto" lighting-color="rgb(255, 255, 255)" color="rgb(0, 0, 0)" font-weight="400" alignment-baseline="auto" font-style="normal" version="1.1" color-interpolation-filters="linearrgb" text-anchor="start" stroke-linecap="butt" color-interpolation="srgb" font-variant="normal" word-spacing="normal" fill-opacity="1" text-rendering="auto" clip-path="none" text-decoration="none" letter-spacing="normal" viewBox="0 0 57 66" glyph-orientation-vertical="auto" display="inline" font-size-adjust="none" overflow="visible" fill="rgb(0, 0, 0)" font-stretch="normal" stroke-dasharray="none" id="svg1.Ebene_1" stroke-miterlimit="4" stop-opacity="1" color-rendering="auto" font-size="12" pointer-events="visiblepainted" mask="none" direction="ltr" baseline-shift="baseline" enable-background="new 0 0 57 66" fill-rule="nonzero" image-rendering="auto" stroke-dashoffset="0" width="57px" marker-end="none" clip="auto" cursor="auto" stroke="none" filter="none" visibility="visible" kerning="auto" stroke-width="1" font-family="&quot;Arial&quot;,&quot;Helvetica&quot;,sans-serif" flood-opacity="1" clip-rule="nonzero" src="none" height="66px" unicode-bidi="normal" stroke-linejoin="miter" stroke-opacity="1" flood-color="rgb(0, 0, 0)" dominant-baseline="auto" marker-start="none" x="0px" marker-mid="none" y="0px">
<g>
	
		<linearGradient gradientTransform="matrix(1 0 0 -1 0.2803 -2252.9199)" x1="26.3799" x2="27.6209" gradientUnits="userSpaceOnUse" y1="-2276.8809" y2="-2306.6792" id="svg1.SVGID_1_">
		<stop offset="0.2711" style="stop-color:#FFAB4F"/>
		<stop offset="1" style="stop-color:#FFD28F"/>
	</linearGradient>
	<path fill="url(#svg1.SVGID_1_)" d="M49.529,51.225c-4.396-4.396-10.951-5.884-12.063-6.109   V37.8H19.278c0,0,0.038,6.903,0,6.868c0,0-6.874,0.997-12.308,6.432C1.378,56.691,0.5,62.77,0.5,62.77   c0,1.938,1.575,3.492,3.523,3.492h48.51c1.947,0,3.521-1.558,3.521-3.492C56.055,62.768,54.211,55.906,49.529,51.225z" stroke-miterlimit="10" stroke="#ED9135"/>
	<path fill="#ECECEC" id="svg1.body_13_" d="M0.5,62.768c0,1.938,1.575,3.494,3.523,3.494h48.51   c1.947,0,3.521-1.559,3.521-3.494c0,0-1.844-6.861-6.525-11.543c-4.815-4.813-11.244-6.146-11.244-6.146   c-1.771,1.655-5.61,3.802-10.063,3.802c-4.453,0-8.292-2.146-10.063-3.802c0,0-5.755,0.586-11.189,6.021   C1.378,56.689,0.5,62.768,0.5,62.768z" stroke-miterlimit="10" stroke="#9B9B9B"/>
	<path fill="#2068A3" d="M28.106,33.487c-8.112,0-12.688,4.312-12.688,10.437c0,7.422,12.688,10.438,12.688,10.438   s14.688-3.016,14.688-10.438C42.793,38.75,36.215,33.487,28.106,33.487z M26.288,53.051c0,0-7.135-2.093-8.805-7.201   c-0.222-0.682,0.147-1.156,0.795-1.521V37.8h20.188v6.663c0.235,0.352,1.109,0.737,1.229,1.387   C40.445,49.917,26.288,53.051,26.288,53.051z" stroke="#2068A3"/>
	
		<radialGradient gradientTransform="matrix(1 0 0 -1 0.04 65.1543)" id="svg1.SVGID_2_" r="53.247" cx="14.2417" gradientUnits="userSpaceOnUse" cy="9.1006">
		<stop offset="0" style="stop-color:#74AEEE"/>
		<stop offset="1" style="stop-color:#2068A3"/>
	</radialGradient>
	<path fill="url(#svg1.SVGID_2_)" d="M49.529,51.225c-2.239-2.24-5.041-3.724-7.396-4.67   c-2.854,5.51-14.022,7.807-14.022,7.807s-10.472-2.484-12.387-8.514c-2.439,0.771-5.787,2.287-8.749,5.25   c-5.592,5.592-6.47,11.67-6.47,11.67c0,1.938,1.575,3.492,3.523,3.492h48.51c1.947,0,3.521-1.558,3.521-3.492   C56.055,62.768,54.211,55.906,49.529,51.225z" stroke-miterlimit="10" stroke="#2068A3"/>
	<path fill="#5491CF" d="M13.404,44.173c1.15-1.81,2.039-3.832,3.332-5.397c-0.514,1.027-1.669,4.084-1.669,5.148   c0,5.186,10.366,9.079,14.688,10.438c-3.472,1.627-9.134-1.498-11.335-2.36c-3.601-1.419-4.071-3.063-5.89-4.854   C12.523,47.135,12.878,45,13.404,44.173z" stroke="#2068A3"/>
	<path fill="#5491CF" d="M45.777,43.924c-1.317-1.568-5.11-9.424-6.604-6.617c0.516,1.025,3.617,3.693,3.617,6.617   c0,5.186-10.27,8.576-16.698,9.145c1.429,4.938,11.372,1.293,13.804-0.313c3.563-2.354,4.563-5.133,7.854-3.705   C47.754,49.045,48.006,46.574,45.777,43.924z" stroke="#2068A3"/>
	<path fill="none" d="M30.777,54.167c0.357,0.836-0.153,1.983-0.352,2.813   c-0.256,1.084-0.072,2.104,0.102,3.186c0.164,1.02,0.156,2.107,0.25,3.167c0.082,0.916,0.482,1.849,0.357,2.75" stroke="#2068A3" stroke-linecap="round"/>
	<path fill="none" d="M23.695,53.417c-0.508,0.584-0.476,2.209-0.398,3   c0.116,1.183,0.456,2.099,0.333,3.333c-0.192,1.943,0.154,4.479-0.436,6.333" stroke="#2068A3" stroke-linecap="round"/>
	
		<radialGradient gradientTransform="matrix(1 0 0 -1 0.2803 -2252.9199)" gradientUnits="userSpaceOnUse" r="23.425" cx="27.623" id="svg1.face_x5F_white_1_" cy="-2278.646" fx="23.0534" fy="-2281.1357">
		<stop offset="0" style="stop-color:#FFD28F"/>
		<stop offset="1" style="stop-color:#FFAB4F"/>
	</radialGradient>
	<path fill="url(#svg1.face_x5F_white_1_)" id="svg1.face_x5F_white_3_" d="M43.676,23.357   c0.086,10.2-6.738,18.52-15.25,18.586c-8.5,0.068-15.464-8.146-15.55-18.344C12.794,13.4,19.618,5.079,28.123,5.012   C36.627,4.945,43.59,13.158,43.676,23.357z" stroke-miterlimit="10" stroke="#ED9135"/>
	
		<linearGradient gradientTransform="matrix(0.275 0 0 0.2733 -1558.9874 -3088.4209)" x1="5761.7578" x2="5785.3872" gradientUnits="userSpaceOnUse" y1="11330.6484" y2="11424.0977" id="svg1.face_highlight_1_">
		<stop offset="0" style="stop-color:#FFFFFF;stop-opacity:0.24"/>
		<stop offset="1" style="stop-color:#FFFFFF;stop-opacity:0.16"/>
	</linearGradient>
	<path fill="url(#svg1.face_highlight_1_)" id="svg1.face_highlight_3_" d="M27.958,6.333c-6.035,0.047-10.747,4.493-12.787,10.386   c-0.664,1.919-0.294,4.043,0.98,5.629c2.73,3.398,5.729,6.283,9.461,8.088c3.137,1.518,7.535,2.385,11.893,1.247   c2.274-0.592,3.988-2.459,4.375-4.766c0.187-1.094,0.293-2.289,0.283-3.553C42.083,13.952,36.271,6.268,27.958,6.333z"/>
	<path fill="#CC9869" d="M20.278,13.25   c3.417,4.333,9.333,6.917,9.333,6.917l-1.417-3.5c0,0,7.094,4.691,8.083,4.333c0.968-0.2-1.082-3.807-1.082-3.807   s3.138,1.795,4.854,3.969c1.803,2.28,4.285,3.504,4.285,3.504S47.027,2.719,27.289,2.744C8.278,2.709,12.058,27.678,12.058,27.678   L14.695,17c0,0,0.914,5.757,1.399,4.875C17.861,15.211,18.861,11.5,20.278,13.25z" id="svg1.Hair_Young_Brown_1_" stroke="#99724F" stroke-linecap="round" stroke-linejoin="round"/>
	<path fill="#4B4B4B" d="M28.105,2   C22.464,2,20.2,4.246,18.13,5.533C29.753,2.865,41.152,10.375,44.46,20.5C44.459,16.875,44.459,2,28.105,2z" stroke-miterlimit="10" stroke="#4B4B4B" stroke-linecap="round" stroke-linejoin="round"/>
	<path fill="#9B9B9B" d="M11.151,17.751   C12.878,8.25,18.686,6.309,25.273,7.127C31.295,7.875,36.93,10.491,44.459,20.5C37.777,7.125,20.278-3.375,9.903,3.921   C5.569,6.97,4.903,13.375,11.151,17.751z" stroke-miterlimit="10" stroke="#4B4B4B" stroke-linecap="round" stroke-linejoin="round"/>
</g>
</svg>
      </g>
    </g>
    <g text-rendering="geometricPrecision" stroke-miterlimit="1.45" shape-rendering="geometricPrecision" font-family="sans-serif" transform="matrix(1,0,0,1,-433,-217)" stroke-linecap="butt">
      <text x="565.6899" xml:space="preserve" y="245.4971" clip-path="url(#clipPath2)" stroke="none">push(pop(C), E)</text>
    </g>
    <g text-rendering="geometricPrecision" shape-rendering="geometricPrecision" transform="matrix(1,0,0,1,272.2606,225.6704)">
      <g clip-path="url(#clipPath4)">
        <svg xml:space="preserve" opacity="1" writing-mode="lr-tb" stop-color="rgb(0, 0, 0)" shape-rendering="auto" glyph-orientation-horizontal="0deg" color-profile="auto" lighting-color="rgb(255, 255, 255)" color="rgb(0, 0, 0)" font-weight="400" alignment-baseline="auto" font-style="normal" version="1.1" color-interpolation-filters="linearrgb" text-anchor="start" stroke-linecap="butt" color-interpolation="srgb" font-variant="normal" word-spacing="normal" fill-opacity="1" text-rendering="auto" clip-path="none" text-decoration="none" letter-spacing="normal" viewBox="0 0 57 65" glyph-orientation-vertical="auto" display="inline" font-size-adjust="none" overflow="visible" fill="rgb(0, 0, 0)" font-stretch="normal" stroke-dasharray="none" id="svg2.Ebene_1" stroke-miterlimit="4" stop-opacity="1" color-rendering="auto" font-size="12" pointer-events="visiblepainted" mask="none" direction="ltr" baseline-shift="baseline" enable-background="new 0 0 57 65" fill-rule="nonzero" image-rendering="auto" stroke-dashoffset="0" width="57px" marker-end="none" clip="auto" cursor="auto" stroke="none" filter="none" visibility="visible" kerning="auto" stroke-width="1" font-family="&quot;Arial&quot;,&quot;Helvetica&quot;,sans-serif" flood-opacity="1" clip-rule="nonzero" src="none" height="65px" unicode-bidi="normal" stroke-linejoin="miter" stroke-opacity="1" flood-color="rgb(0, 0, 0)" dominant-baseline="auto" marker-start="none" x="0px" marker-mid="none" y="0px">
<g>
	
		<linearGradient gradientTransform="matrix(1 0 0 1 0.3203 -3091.7656)" x1="26.3398" x2="27.5807" gradientUnits="userSpaceOnUse" y1="3115.7266" y2="3145.5239" id="svg2.SVGID_1_">
		<stop offset="0.2711" style="stop-color:#FFAB4F"/>
		<stop offset="1" style="stop-color:#FFD28F"/>
	</linearGradient>
	<path fill="url(#svg2.SVGID_1_)" d="M49.529,51.225c-4.396-4.396-10.951-5.884-12.063-6.109   V37.8H19.278c0,0,0.038,6.903,0,6.868c0,0-6.874,0.997-12.308,6.432C1.378,56.691,0.5,62.77,0.5,62.77   c0,1.938,1.575,3.492,3.523,3.492h48.51c1.947,0,3.521-1.558,3.521-3.492C56.055,62.768,54.211,55.906,49.529,51.225z" stroke-miterlimit="10" stroke="#ED9135"/>
	
		<radialGradient gradientTransform="matrix(1 0 0 1 0.3203 -3091.7656)" gradientUnits="userSpaceOnUse" r="23.425" cx="27.5835" id="svg2.face_x5F_white_1_" cy="3117.4922" fx="23.0139" fy="3115.0024">
		<stop offset="0" style="stop-color:#FFD28F"/>
		<stop offset="1" style="stop-color:#FFAB4F"/>
	</radialGradient>
	<path fill="url(#svg2.face_x5F_white_1_)" id="svg2.face_x5F_white_3_" d="M43.676,23.357   c0.086,10.2-6.738,18.52-15.25,18.586c-8.5,0.068-15.464-8.146-15.55-18.344C12.794,13.4,19.618,5.079,28.123,5.012   C36.627,4.945,43.59,13.158,43.676,23.357z" stroke-miterlimit="10" stroke="#ED9135"/>
	
		<linearGradient gradientTransform="matrix(0.275 0 0 -0.2733 -1752.8849 -3351.7349)" x1="6468.501" x2="6492.1304" gradientUnits="userSpaceOnUse" y1="-12291.5195" y2="-12384.9688" id="svg2.face_highlight_1_">
		<stop offset="0" style="stop-color:#FFFFFF;stop-opacity:0.24"/>
		<stop offset="1" style="stop-color:#FFFFFF;stop-opacity:0.16"/>
	</linearGradient>
	<path fill="url(#svg2.face_highlight_1_)" id="svg2.face_highlight_3_" d="M28.415,5.625c-6.035,0.047-10.747,4.493-12.787,10.386   c-0.664,1.919-0.294,4.043,0.98,5.629c2.73,3.398,5.729,6.283,9.461,8.088c3.137,1.518,7.535,2.385,11.893,1.247   c2.274-0.592,3.988-2.459,4.375-4.766c0.187-1.094,0.293-2.289,0.283-3.553C42.54,13.244,36.729,5.56,28.415,5.625z"/>
	<path fill="#CC9869" d="M28.02,31.921   c-6.78,0-6.717,3.708-6.717,3.708c0,8.133,2.985,8.788,6.955,8.788c4.243,0,6.792-0.926,6.792-8.595   C35.051,35.822,35.881,31.921,28.02,31.921z M23.989,35.678c0-0.556,1.838-1.005,4.107-1.005c2.27,0,4.107,0.449,4.107,1.005   C32.204,36.232,23.989,36.232,23.989,35.678z" stroke-width="0.9271" stroke="#99724F" stroke-linecap="round" stroke-linejoin="round"/>
	<path fill="#CC9869" d="M20.278,13.25   c0,0,5.321,7.25,15,3.75c2.729-0.563,9.058,1.035,9.058,1.035S40.68,1.865,27.289,2.744C9.403,4.125,12.058,25.678,12.058,25.678   s2.768-0.684,5.036-4.802C18.068,19.106,20.278,13.25,20.278,13.25z" id="svg2.hair_x5F_gray_2_" stroke="#99724F" stroke-linecap="round" stroke-linejoin="round"/>
	
		<radialGradient gradientTransform="matrix(1 0 0 1 0.3203 -3091.7656)" id="svg2.collar_x5F_body_1_" r="32.4004" cx="14.9609" gradientUnits="userSpaceOnUse" cy="3148.9336">
		<stop offset="0" style="stop-color:#B0E8FF"/>
		<stop offset="1" style="stop-color:#74AEEE"/>
	</radialGradient>
	<path fill="url(#svg2.collar_x5F_body_1_)" d="M0.5,62.768c0,1.938,1.575,3.494,3.523,3.494   h48.51c1.947,0,3.521-1.559,3.521-3.494c0,0-1.844-6.861-6.525-11.543c-4.815-4.813-11.244-6.146-11.244-6.146   c-1.771,1.655-5.61,2.802-10.063,2.802c-4.453,0-8.292-1.146-10.063-2.802c0,0-5.755,0.586-11.189,6.021   C1.378,56.689,0.5,62.768,0.5,62.768z" id="svg2.collar_x5F_body_3_" stroke="#5491CF"/>
	
		<radialGradient gradientTransform="matrix(1 0 0 1 0.3203 -3091.7656)" id="svg2.collar_x5F_r_1_" r="9.2823" cx="31.2998" gradientUnits="userSpaceOnUse" cy="3139.0605">
		<stop offset="0" style="stop-color:#80CCFF"/>
		<stop offset="1" style="stop-color:#74AEEE"/>
	</radialGradient>
	<path fill="url(#svg2.collar_x5F_r_1_)" d="M38.159,41.381c0,0-0.574,2.369-3.013,4.441   c-2.108,1.795-5.783,2.072-5.783,2.072l3.974,6.217c0,0,2.957-1.637,5.009-3.848c1.922-2.072,1.37-5.479,1.37-5.479L38.159,41.381z   " id="svg2.collar_x5F_r_3_" stroke="#5491CF"/>
	
		<radialGradient gradientTransform="matrix(1 0 0 1 0.3203 -3091.7656)" id="svg2.collar_x5F_l_1_" r="9.2843" cx="18.9375" gradientUnits="userSpaceOnUse" cy="3139.1016">
		<stop offset="0" style="stop-color:#80CCFF"/>
		<stop offset="1" style="stop-color:#74AEEE"/>
	</radialGradient>
	<path fill="url(#svg2.collar_x5F_l_1_)" d="M18.63,41.422c0,0,0.576,2.369,3.012,4.441   c2.109,1.793,5.785,2.072,5.785,2.072l-3.974,6.217c0,0-2.957-1.637-5.007-3.85c-1.922-2.072-1.37-5.48-1.37-5.48L18.63,41.422z" id="svg2.collar_x5F_l_3_" stroke="#5491CF"/>
	
		<radialGradient gradientTransform="matrix(1 0 0 1 0.2402 -2319.0742)" id="svg2.Knob2_1_" r="0.9669" cx="27.6895" gradientUnits="userSpaceOnUse" cy="2375.2871">
		<stop offset="0" style="stop-color:#80CCFF"/>
		<stop offset="1" style="stop-color:#74AEEE"/>
	</radialGradient>
	<circle fill="url(#svg2.Knob2_1_)" r="0.584" id="svg2.Knob2_3_" cx="28.258" cy="56.254" stroke="#5491CF"/>
	
		<radialGradient gradientTransform="matrix(1 0 0 1 0.2402 -2319.0742)" id="svg2.Knob1_1_" r="0.9669" cx="27.7275" gradientUnits="userSpaceOnUse" cy="2381.5283">
		<stop offset="0" style="stop-color:#80CCFF"/>
		<stop offset="1" style="stop-color:#74AEEE"/>
	</radialGradient>
	<circle fill="url(#svg2.Knob1_1_)" r="0.584" id="svg2.Knob1_3_" cx="28.297" cy="62.499" stroke="#5491CF"/>
	<path fill="#D54A30" d="M27.442,55.23c0,0-1.852,2.057-2.082,6.543c-0.23,4.488,0,4.488,0,4.488   h6.546c0,0,0.23,0.063-0.154-4.367c-0.4-4.604-2.389-6.668-2.389-6.668L27.442,55.23L27.442,55.23z" id="svg2.path5135_5_" stroke="#B51A19"/>
	<path fill="#D54A30" d="M28.325,48.688h0.125L31,52.691c0.516,0.953-1.207,1.797-1.457,2.547   l-2.277-0.018c-0.242-0.761-2.26-1.369-1.477-2.584L28.325,48.688z" id="svg2.path5131_5_" stroke="#B51A19"/>
</g>
</svg>
      </g>
    </g>
    <g text-rendering="geometricPrecision" stroke-miterlimit="1.45" shape-rendering="geometricPrecision" font-family="sans-serif" transform="matrix(1,0,0,1,-433,-217)" stroke-linecap="butt">
      <text x="713.3785" xml:space="preserve" y="526.571" clip-path="url(#clipPath2)" stroke="none">pop(C)</text>
    </g>
    <g text-rendering="geometricPrecision" shape-rendering="geometricPrecision" transform="matrix(1,0,0,1,152.2606,225.3414)">
      <g clip-path="url(#clipPath5)">
        <svg xml:space="preserve" opacity="1" writing-mode="lr-tb" stop-color="rgb(0, 0, 0)" shape-rendering="auto" glyph-orientation-horizontal="0deg" color-profile="auto" lighting-color="rgb(255, 255, 255)" color="rgb(0, 0, 0)" font-weight="400" alignment-baseline="auto" font-style="normal" version="1.1" color-interpolation-filters="linearrgb" text-anchor="start" stroke-linecap="butt" color-interpolation="srgb" font-variant="normal" word-spacing="normal" fill-opacity="1" text-rendering="auto" clip-path="none" text-decoration="none" letter-spacing="normal" viewBox="0 0 57 65" glyph-orientation-vertical="auto" display="inline" font-size-adjust="none" overflow="visible" fill="rgb(0, 0, 0)" font-stretch="normal" stroke-dasharray="none" id="svg3.Ebene_1" stroke-miterlimit="4" stop-opacity="1" color-rendering="auto" font-size="12" pointer-events="visiblepainted" mask="none" direction="ltr" baseline-shift="baseline" enable-background="new 0 0 57 65" fill-rule="nonzero" image-rendering="auto" stroke-dashoffset="0" width="57px" marker-end="none" clip="auto" cursor="auto" stroke="none" filter="none" visibility="visible" kerning="auto" stroke-width="1" font-family="&quot;Arial&quot;,&quot;Helvetica&quot;,sans-serif" flood-opacity="1" clip-rule="nonzero" src="none" height="65px" unicode-bidi="normal" stroke-linejoin="miter" stroke-opacity="1" flood-color="rgb(0, 0, 0)" dominant-baseline="auto" marker-start="none" x="0px" marker-mid="none" y="0px">
<g>
	<polygon fill="#FAE1AA" points="44.365,49.031 13.101,53.422    12.191,30.465 43.408,31.092  " stroke="#F9C969" stroke-linecap="round" stroke-linejoin="round"/>
	
		<linearGradient gradientTransform="matrix(1 0 0 1 0.3203 -3091.7656)" x1="26.3398" x2="27.5807" gradientUnits="userSpaceOnUse" y1="3115.7266" y2="3145.5239" id="svg3.SVGID_1_">
		<stop offset="0.2711" style="stop-color:#FFAB4F"/>
		<stop offset="1" style="stop-color:#FFD28F"/>
	</linearGradient>
	<path fill="url(#svg3.SVGID_1_)" d="M49.529,51.225c-4.396-4.396-10.951-5.884-12.063-6.109   V37.8H19.278c0,0,0.038,6.903,0,6.868c0,0-6.874,0.997-12.308,6.432C1.378,56.691,0.5,62.77,0.5,62.77   c0,1.938,1.575,3.492,3.523,3.492h48.51c1.947,0,3.521-1.558,3.521-3.492C56.055,62.768,54.211,55.906,49.529,51.225z" stroke-miterlimit="10" stroke="#ED9135"/>
	
		<radialGradient gradientTransform="matrix(1 0 0 1 0.3203 -3091.7656)" gradientUnits="userSpaceOnUse" r="23.425" cx="27.5835" id="svg3.face_x5F_white_1_" cy="3117.4922" fx="23.0139" fy="3115.0024">
		<stop offset="0" style="stop-color:#FFD28F"/>
		<stop offset="1" style="stop-color:#FFAB4F"/>
	</radialGradient>
	<path fill="url(#svg3.face_x5F_white_1_)" id="svg3.face_x5F_white_3_" d="M43.676,23.357   c0.086,10.2-6.738,18.52-15.25,18.586c-8.5,0.068-15.464-8.146-15.55-18.344C12.794,13.4,19.618,5.079,28.123,5.012   C36.627,4.945,43.59,13.158,43.676,23.357z" stroke-miterlimit="10" stroke="#ED9135"/>
	
		<linearGradient gradientTransform="matrix(0.275 0 0 -0.2733 -1752.8849 -3351.7349)" x1="6468.501" x2="6492.1304" gradientUnits="userSpaceOnUse" y1="-12291.5195" y2="-12384.9688" id="svg3.face_highlight_1_">
		<stop offset="0" style="stop-color:#FFFFFF;stop-opacity:0.24"/>
		<stop offset="1" style="stop-color:#FFFFFF;stop-opacity:0.16"/>
	</linearGradient>
	<path fill="url(#svg3.face_highlight_1_)" id="svg3.face_highlight_3_" d="M28.415,5.625c-6.035,0.047-10.747,4.493-12.787,10.386   c-0.664,1.919-0.294,4.043,0.98,5.629c2.73,3.398,5.729,6.283,9.461,8.088c3.137,1.518,7.535,2.385,11.893,1.247   c2.274-0.592,3.988-2.459,4.375-4.766c0.187-1.094,0.293-2.289,0.283-3.553C42.54,13.244,36.729,5.56,28.415,5.625z"/>
	<path fill="#FAE1AA" d="M17.754,45.004   c-0.413-3.02-0.771-6.182-0.946-9.033c-0.574-9.349,2.886-17.721,2.886-17.721l0.882-2.078l0.94,2.419l1.872-4.956l-0.049,4.553   l1.311-0.749l0.701-1.653L25.715,18l1.055-0.988l2.13-0.729L29.84,17l0.479-2.375l0.834,2.554l1.125-1.024l1.68-0.214l1.07,1.372   l-0.243-4.246l1.883,3.967L37.611,17c0,0,5.595,10.622,3.313,29.1c2.154,0.76,4.916,2.016,7.316,3.976   c0.001-0.001,0.011-0.013,0.011-0.013L44.111,19.38C43.079,12.873,38.752,2.599,28.73,2.648   C5.153,2.568,13.025,42.055,8.945,49.334c-0.007,0.014-0.012,0.025-0.02,0.039C12.292,46.729,15.809,45.516,17.754,45.004z" stroke="#E2B354" stroke-linecap="round" stroke-linejoin="round"/>
	
		<radialGradient gradientTransform="matrix(1 0 0 -1 0.04 64.1543)" id="svg3.collar_x5F_body_1_" r="32.4004" cx="15.2412" gradientUnits="userSpaceOnUse" cy="9.9829">
		<stop offset="0" style="stop-color:#FCB57A"/>
		<stop offset="1" style="stop-color:#FF8C36"/>
	</radialGradient>
	<path fill="url(#svg3.collar_x5F_body_1_)" d="M0.5,62.768c0,1.938,1.575,3.494,3.523,3.494   h48.51c1.947,0,3.521-1.559,3.521-3.494c0,0-1.844-6.861-6.525-11.543c-4.815-4.813-11.244-6.146-11.244-6.146   c-1.771,1.655-5.61,2.802-10.063,2.802c-4.453,0-8.292-1.146-10.063-2.802c0,0-5.755,0.586-11.189,6.021   C1.378,56.689,0.5,62.768,0.5,62.768z" id="svg3.collar_x5F_body_2_" stroke="#E55E03"/>
	
		<radialGradient gradientTransform="matrix(1 0 0 -1 0.04 64.1543)" id="svg3.collar_x5F_r_1_" r="9.2823" cx="31.5801" gradientUnits="userSpaceOnUse" cy="15.957">
		<stop offset="0" style="stop-color:#FCB57A"/>
		<stop offset="1" style="stop-color:#FF8C36"/>
	</radialGradient>
	<path fill="url(#svg3.collar_x5F_r_1_)" d="M38.159,41.381c0,0-0.574,2.369-3.013,4.441   c-2.108,1.795-5.783,2.072-5.783,2.072l3.974,6.217c0,0,2.957-1.637,5.009-3.848c1.922-2.072,1.37-5.479,1.37-5.479L38.159,41.381z   " id="svg3.collar_x5F_r_2_" stroke="#E55E03"/>
	
		<radialGradient gradientTransform="matrix(1 0 0 -1 0.04 64.1543)" id="svg3.collar_x5F_l_1_" r="9.2843" cx="19.2178" gradientUnits="userSpaceOnUse" cy="15.916">
		<stop offset="0" style="stop-color:#FCB57A"/>
		<stop offset="1" style="stop-color:#FF8C36"/>
	</radialGradient>
	<path fill="url(#svg3.collar_x5F_l_1_)" d="M18.63,41.422c0,0,0.576,2.369,3.012,4.441   c2.109,1.793,5.785,2.072,5.785,2.072l-3.974,6.217c0,0-2.957-1.637-5.007-3.85c-1.922-2.072-1.37-5.48-1.37-5.48L18.63,41.422z" id="svg3.collar_x5F_l_2_" stroke="#E55E03"/>
	<circle fill="#E55E03" r="0.584" id="svg3.Knob2_2_" cx="28.258" cy="56.254" stroke="#E55E03"/>
	<circle fill="#E55E03" r="0.584" id="svg3.Knob1_2_" cx="28.297" cy="62.499" stroke="#E55E03"/>
</g>
</svg>
      </g>
    </g>
    <g text-rendering="geometricPrecision" shape-rendering="geometricPrecision" transform="matrix(1,0,0,1,32.2606,40.7021)">
      <g clip-path="url(#clipPath6)">
        <svg xml:space="preserve" opacity="1" writing-mode="lr-tb" stop-color="rgb(0, 0, 0)" shape-rendering="auto" glyph-orientation-horizontal="0deg" color-profile="auto" lighting-color="rgb(255, 255, 255)" color="rgb(0, 0, 0)" font-weight="400" alignment-baseline="auto" font-style="normal" version="1.1" color-interpolation-filters="linearrgb" text-anchor="start" stroke-linecap="butt" color-interpolation="srgb" font-variant="normal" word-spacing="normal" fill-opacity="1" text-rendering="auto" clip-path="none" text-decoration="none" letter-spacing="normal" viewBox="0 0 57 65" glyph-orientation-vertical="auto" display="inline" font-size-adjust="none" overflow="visible" fill="rgb(0, 0, 0)" font-stretch="normal" stroke-dasharray="none" id="svg4.Ebene_1" stroke-miterlimit="4" stop-opacity="1" color-rendering="auto" font-size="12" pointer-events="visiblepainted" mask="none" direction="ltr" baseline-shift="baseline" enable-background="new 0 0 57 65" fill-rule="nonzero" image-rendering="auto" stroke-dashoffset="0" width="57px" marker-end="none" clip="auto" cursor="auto" stroke="none" filter="none" visibility="visible" kerning="auto" stroke-width="1" font-family="&quot;Arial&quot;,&quot;Helvetica&quot;,sans-serif" flood-opacity="1" clip-rule="nonzero" src="none" height="65px" unicode-bidi="normal" stroke-linejoin="miter" stroke-opacity="1" flood-color="rgb(0, 0, 0)" dominant-baseline="auto" marker-start="none" x="0px" marker-mid="none" y="0px">
<g>
	
		<linearGradient gradientTransform="matrix(1 0 0 1 0.3203 -3091.7656)" x1="26.3398" x2="27.5807" gradientUnits="userSpaceOnUse" y1="3115.7266" y2="3145.5239" id="svg4.SVGID_1_">
		<stop offset="0.2711" style="stop-color:#FFAB4F"/>
		<stop offset="1" style="stop-color:#FFD28F"/>
	</linearGradient>
	<path fill="url(#svg4.SVGID_1_)" d="M49.529,51.225c-4.396-4.396-10.951-5.884-12.063-6.109   V37.8H19.278c0,0,0.038,6.903,0,6.868c0,0-6.874,0.997-12.308,6.432C1.378,56.691,0.5,62.77,0.5,62.77   c0,1.938,1.575,3.492,3.523,3.492h48.51c1.947,0,3.521-1.558,3.521-3.492C56.055,62.768,54.211,55.906,49.529,51.225z" stroke-miterlimit="10" stroke="#ED9135"/>
	
		<radialGradient gradientTransform="matrix(1 0 0 1 0.3203 -3091.7656)" gradientUnits="userSpaceOnUse" r="23.425" cx="27.5835" id="svg4.face_x5F_white_1_" cy="3117.4922" fx="23.0139" fy="3115.0024">
		<stop offset="0" style="stop-color:#FFD28F"/>
		<stop offset="1" style="stop-color:#FFAB4F"/>
	</radialGradient>
	<path fill="url(#svg4.face_x5F_white_1_)" id="svg4.face_x5F_white_3_" d="M43.676,23.357   c0.086,10.2-6.738,18.52-15.25,18.586c-8.5,0.068-15.464-8.146-15.55-18.344C12.794,13.4,19.618,5.079,28.123,5.012   C36.627,4.945,43.59,13.158,43.676,23.357z" stroke-miterlimit="10" stroke="#ED9135"/>
	
		<linearGradient gradientTransform="matrix(0.275 0 0 -0.2733 -1752.8849 -3351.7349)" x1="6468.501" x2="6492.1304" gradientUnits="userSpaceOnUse" y1="-12291.5195" y2="-12384.9688" id="svg4.face_highlight_1_">
		<stop offset="0" style="stop-color:#FFFFFF;stop-opacity:0.24"/>
		<stop offset="1" style="stop-color:#FFFFFF;stop-opacity:0.16"/>
	</linearGradient>
	<path fill="url(#svg4.face_highlight_1_)" id="svg4.face_highlight_3_" d="M28.415,5.625c-6.035,0.047-10.747,4.493-12.787,10.386   c-0.664,1.919-0.294,4.043,0.98,5.629c2.73,3.398,5.729,6.283,9.461,8.088c3.137,1.518,7.535,2.385,11.893,1.247   c2.274-0.592,3.988-2.459,4.375-4.766c0.187-1.094,0.293-2.289,0.283-3.553C42.54,13.244,36.729,5.56,28.415,5.625z"/>
	<path fill="#CC9869" d="M20.278,13.25   c3.417,4.333,9.333,6.917,9.333,6.917l-1.417-3.5c0,0,7.094,4.691,8.083,4.333c0.968-0.2-1.082-3.807-1.082-3.807   s3.138,1.795,4.854,3.969c1.803,2.28,4.285,3.504,4.285,3.504S47.027,2.719,27.289,2.744C8.278,2.709,12.058,27.678,12.058,27.678   L14.695,17c0,0,0.914,5.757,1.399,4.875C17.861,15.211,18.861,11.5,20.278,13.25z" id="svg4.Hair_Young_Brown_1_" stroke="#99724F" stroke-linecap="round" stroke-linejoin="round"/>
	<path fill="#FAE1AA" d="M20.278,13.25   c3.417,4.333,9.333,6.917,9.333,6.917l-1.417-3.5c0,0,7.094,4.691,8.083,4.333c0.968-0.2-1.082-3.807-1.082-3.807   s3.138,1.795,4.854,3.969c1.803,2.28,4.285,3.504,4.285,3.504S47.027,2.719,27.289,2.744C8.278,2.709,12.058,27.678,12.058,27.678   L14.695,17c0,0,0.914,5.757,1.399,4.875C17.861,15.211,18.861,11.5,20.278,13.25z" id="svg4.Hair_Young_Blond_1_" stroke="#E2B354" stroke-linecap="round" stroke-linejoin="round"/>
	
		<radialGradient gradientTransform="matrix(1 0 0 1 0.3203 -3091.7656)" id="svg4.collar_x5F_body_1_" r="32.4004" cx="14.9609" gradientUnits="userSpaceOnUse" cy="3148.9336">
		<stop offset="0" style="stop-color:#B0E8FF"/>
		<stop offset="1" style="stop-color:#74AEEE"/>
	</radialGradient>
	<path fill="url(#svg4.collar_x5F_body_1_)" d="M0.5,62.768c0,1.938,1.575,3.494,3.523,3.494   h48.51c1.947,0,3.521-1.559,3.521-3.494c0,0-1.844-6.861-6.525-11.543c-4.815-4.813-11.244-6.146-11.244-6.146   c-1.771,1.655-5.61,2.802-10.063,2.802c-4.453,0-8.292-1.146-10.063-2.802c0,0-5.755,0.586-11.189,6.021   C1.378,56.689,0.5,62.768,0.5,62.768z" id="svg4.collar_x5F_body_3_" stroke="#5491CF"/>
	
		<radialGradient gradientTransform="matrix(1 0 0 1 0.3203 -3091.7656)" id="svg4.collar_x5F_r_1_" r="9.2823" cx="31.2998" gradientUnits="userSpaceOnUse" cy="3139.0605">
		<stop offset="0" style="stop-color:#80CCFF"/>
		<stop offset="1" style="stop-color:#74AEEE"/>
	</radialGradient>
	<path fill="url(#svg4.collar_x5F_r_1_)" d="M38.159,41.381c0,0-0.574,2.369-3.013,4.441   c-2.108,1.795-5.783,2.072-5.783,2.072l3.974,6.217c0,0,2.957-1.637,5.009-3.848c1.922-2.072,1.37-5.479,1.37-5.479L38.159,41.381z   " id="svg4.collar_x5F_r_3_" stroke="#5491CF"/>
	
		<radialGradient gradientTransform="matrix(1 0 0 1 0.3203 -3091.7656)" id="svg4.collar_x5F_l_1_" r="9.2843" cx="18.9375" gradientUnits="userSpaceOnUse" cy="3139.1016">
		<stop offset="0" style="stop-color:#80CCFF"/>
		<stop offset="1" style="stop-color:#74AEEE"/>
	</radialGradient>
	<path fill="url(#svg4.collar_x5F_l_1_)" d="M18.63,41.422c0,0,0.576,2.369,3.012,4.441   c2.109,1.793,5.785,2.072,5.785,2.072l-3.974,6.217c0,0-2.957-1.637-5.007-3.85c-1.922-2.072-1.37-5.48-1.37-5.48L18.63,41.422z" id="svg4.collar_x5F_l_3_" stroke="#5491CF"/>
	
		<radialGradient gradientTransform="matrix(1 0 0 1 0.2402 -2319.0742)" id="svg4.Knob2_1_" r="0.9669" cx="27.6895" gradientUnits="userSpaceOnUse" cy="2375.2871">
		<stop offset="0" style="stop-color:#80CCFF"/>
		<stop offset="1" style="stop-color:#74AEEE"/>
	</radialGradient>
	<circle fill="url(#svg4.Knob2_1_)" r="0.584" id="svg4.Knob2_3_" cx="28.258" cy="56.254" stroke="#5491CF"/>
	
		<radialGradient gradientTransform="matrix(1 0 0 1 0.2402 -2319.0742)" id="svg4.Knob1_1_" r="0.9669" cx="27.7275" gradientUnits="userSpaceOnUse" cy="2381.5283">
		<stop offset="0" style="stop-color:#80CCFF"/>
		<stop offset="1" style="stop-color:#74AEEE"/>
	</radialGradient>
	<circle fill="url(#svg4.Knob1_1_)" r="0.584" id="svg4.Knob1_3_" cx="28.297" cy="62.499" stroke="#5491CF"/>
	
		<radialGradient gradientTransform="matrix(1 0 0 -1 0.04 64.1543)" id="svg4.collar_x5F_body_4_" r="32.4004" cx="15.2412" gradientUnits="userSpaceOnUse" cy="9.9829">
		<stop offset="0" style="stop-color:#FCB57A"/>
		<stop offset="1" style="stop-color:#FF8C36"/>
	</radialGradient>
	<path fill="url(#svg4.collar_x5F_body_4_)" d="M0.5,62.768c0,1.938,1.575,3.494,3.523,3.494   h48.51c1.947,0,3.521-1.559,3.521-3.494c0,0-1.844-6.861-6.525-11.543c-4.815-4.813-11.244-6.146-11.244-6.146   c-1.771,1.655-5.61,2.802-10.063,2.802c-4.453,0-8.292-1.146-10.063-2.802c0,0-5.755,0.586-11.189,6.021   C1.378,56.689,0.5,62.768,0.5,62.768z" id="svg4.collar_x5F_body_2_" stroke="#E55E03"/>
	
		<radialGradient gradientTransform="matrix(1 0 0 -1 0.04 64.1543)" id="svg4.collar_x5F_r_4_" r="9.2823" cx="31.5801" gradientUnits="userSpaceOnUse" cy="15.957">
		<stop offset="0" style="stop-color:#FCB57A"/>
		<stop offset="1" style="stop-color:#FF8C36"/>
	</radialGradient>
	<path fill="url(#svg4.collar_x5F_r_4_)" d="M38.159,41.381c0,0-0.574,2.369-3.013,4.441   c-2.108,1.795-5.783,2.072-5.783,2.072l3.974,6.217c0,0,2.957-1.637,5.009-3.848c1.922-2.072,1.37-5.479,1.37-5.479L38.159,41.381z   " id="svg4.collar_x5F_r_2_" stroke="#E55E03"/>
	
		<radialGradient gradientTransform="matrix(1 0 0 -1 0.04 64.1543)" id="svg4.collar_x5F_l_4_" r="9.2843" cx="19.2178" gradientUnits="userSpaceOnUse" cy="15.916">
		<stop offset="0" style="stop-color:#FCB57A"/>
		<stop offset="1" style="stop-color:#FF8C36"/>
	</radialGradient>
	<path fill="url(#svg4.collar_x5F_l_4_)" d="M18.63,41.422c0,0,0.576,2.369,3.012,4.441   c2.109,1.793,5.785,2.072,5.785,2.072l-3.974,6.217c0,0-2.957-1.637-5.007-3.85c-1.922-2.072-1.37-5.48-1.37-5.48L18.63,41.422z" id="svg4.collar_x5F_l_2_" stroke="#E55E03"/>
	
		<radialGradient gradientTransform="matrix(1 0 0 -1 0.04 64.1543)" id="svg4.path5135_1_" r="6.7617" cx="26.6587" gradientUnits="userSpaceOnUse" cy="3.0273">
		<stop offset="0" style="stop-color:#80CCFF"/>
		<stop offset="1" style="stop-color:#74AEEE"/>
	</radialGradient>
	<path fill="url(#svg4.path5135_1_)" d="M27.427,55.221c0,0-1.848,2.057-2.079,6.543   c-0.231,4.488,0,4.488,0,4.488h6.544c0,0,0.23,0.063-0.152-4.363c-0.399-4.604-2.389-6.668-2.389-6.668H27.427z" id="svg4.path5135_3_" stroke="#5491CF"/>
	
		<radialGradient gradientTransform="matrix(1 0 0 -1 0.04 64.1543)" id="svg4.path5131_1_" r="4.8472" cx="26.7456" gradientUnits="userSpaceOnUse" cy="11.9678">
		<stop offset="0" style="stop-color:#80CCFF"/>
		<stop offset="1" style="stop-color:#74AEEE"/>
	</radialGradient>
	<path fill="url(#svg4.path5131_1_)" d="M28.313,48.68h0.122l2.551,4.002   c0.517,0.953-1.204,1.797-1.453,2.549l-2.279-0.016c-0.243-0.76-2.257-1.365-1.476-2.584L28.313,48.68z" id="svg4.path5131_3_" stroke="#5491CF"/>
</g>
</svg>
      </g>
    </g>
    <g fill="rgb(245,245,245)" text-rendering="geometricPrecision" shape-rendering="geometricPrecision" transform="matrix(1,0,0,1,-433,-217)" stroke="rgb(245,245,245)">
      <rect x="808.5377" y="354.4641" clip-path="url(#clipPath2)" width="90" rx="4" ry="4" height="60" stroke="none"/>
    </g>
    <g text-rendering="geometricPrecision" stroke-miterlimit="1.45" stroke-dasharray="6,2" shape-rendering="geometricPrecision" transform="matrix(1,0,0,1,-433,-217)" stroke-linecap="butt">
      <rect x="808.5377" y="354.4641" clip-path="url(#clipPath2)" fill="none" width="90" rx="4" ry="4" height="60"/>
    </g>
    <g fill="rgb(255,204,0)" text-rendering="geometricPrecision" shape-rendering="geometricPrecision" transform="matrix(1,0,0,1,-433,-217)" stroke="rgb(255,204,0)">
      <rect x="823.5377" width="30" height="30" y="369.4641" clip-path="url(#clipPath2)" stroke="none"/>
    </g>
    <g text-rendering="geometricPrecision" stroke-miterlimit="1.45" shape-rendering="geometricPrecision" font-family="sans-serif" transform="matrix(1,0,0,1,-433,-217)" stroke-linecap="butt">
      <text x="834.4332" xml:space="preserve" y="388.6184" clip-path="url(#clipPath2)" stroke="none">A</text>
      <rect fill="none" x="823.5377" width="30" height="30" y="369.4641" clip-path="url(#clipPath2)"/>
    </g>
    <g fill="rgb(255,204,0)" text-rendering="geometricPrecision" shape-rendering="geometricPrecision" transform="matrix(1,0,0,1,-433,-217)" stroke="rgb(255,204,0)">
      <rect x="853.5377" width="30" height="30" y="369.4641" clip-path="url(#clipPath2)" stroke="none"/>
    </g>
    <g text-rendering="geometricPrecision" stroke-miterlimit="1.45" shape-rendering="geometricPrecision" transform="matrix(1,0,0,1,-433,-217)" stroke-linecap="butt">
      <rect fill="none" x="853.5377" width="30" height="30" y="369.4641" clip-path="url(#clipPath2)"/>
    </g>
    <g fill="rgb(245,245,245)" text-rendering="geometricPrecision" shape-rendering="geometricPrecision" transform="matrix(1,0,0,1,-433,-217)" stroke="rgb(245,245,245)">
      <rect x="568.5377" y="354.4641" clip-path="url(#clipPath2)" width="90" rx="4" ry="4" height="60" stroke="none"/>
    </g>
    <g text-rendering="geometricPrecision" stroke-miterlimit="1.45" stroke-dasharray="6,2" shape-rendering="geometricPrecision" transform="matrix(1,0,0,1,-433,-217)" stroke-linecap="butt">
      <rect x="568.5377" y="354.4641" clip-path="url(#clipPath2)" fill="none" width="90" rx="4" ry="4" height="60"/>
    </g>
    <g fill="rgb(255,204,0)" text-rendering="geometricPrecision" shape-rendering="geometricPrecision" transform="matrix(1,0,0,1,-433,-217)" stroke="rgb(255,204,0)">
      <rect x="583.5377" width="30" height="30" y="369.4641" clip-path="url(#clipPath2)" stroke="none"/>
    </g>
    <g text-rendering="geometricPrecision" stroke-miterlimit="1.45" shape-rendering="geometricPrecision" font-family="sans-serif" transform="matrix(1,0,0,1,-433,-217)" stroke-linecap="butt">
      <text x="594.3483" xml:space="preserve" y="388.6184" clip-path="url(#clipPath2)" stroke="none">C</text>
      <rect fill="none" x="583.5377" width="30" height="30" y="369.4641" clip-path="url(#clipPath2)"/>
    </g>
    <g fill="rgb(255,204,0)" text-rendering="geometricPrecision" shape-rendering="geometricPrecision" transform="matrix(1,0,0,1,-433,-217)" stroke="rgb(255,204,0)">
      <rect x="613.5377" width="30" height="30" y="369.4641" clip-path="url(#clipPath2)" stroke="none"/>
    </g>
    <g text-rendering="geometricPrecision" stroke-miterlimit="1.45" shape-rendering="geometricPrecision" transform="matrix(1,0,0,1,-433,-217)" stroke-linecap="butt">
      <rect fill="none" x="613.5377" width="30" height="30" y="369.4641" clip-path="url(#clipPath2)"/>
      <path fill="none" d="M613.5377 444.4629 L613.5377 422.4928" clip-path="url(#clipPath2)"/>
      <path d="M613.5377 414.4928 L608.5377 426.4928 L613.5377 423.4928 L618.5377 426.4928 Z" clip-path="url(#clipPath2)" stroke="none"/>
    </g>
    <g fill="rgb(245,245,245)" text-rendering="geometricPrecision" shape-rendering="geometricPrecision" transform="matrix(1,0,0,1,-433,-217)" stroke="rgb(245,245,245)">
      <rect x="688.5377" y="354.4641" clip-path="url(#clipPath2)" width="90" rx="4" ry="4" height="60" stroke="none"/>
    </g>
    <g text-rendering="geometricPrecision" stroke-miterlimit="1.45" stroke-dasharray="6,2" shape-rendering="geometricPrecision" transform="matrix(1,0,0,1,-433,-217)" stroke-linecap="butt">
      <rect x="688.5377" y="354.4641" clip-path="url(#clipPath2)" fill="none" width="90" rx="4" ry="4" height="60"/>
    </g>
    <g fill="rgb(255,204,0)" text-rendering="geometricPrecision" shape-rendering="geometricPrecision" transform="matrix(1,0,0,1,-433,-217)" stroke="rgb(255,204,0)">
      <rect x="703.5377" width="30" height="30" y="369.4641" clip-path="url(#clipPath2)" stroke="none"/>
    </g>
    <g text-rendering="geometricPrecision" stroke-miterlimit="1.45" shape-rendering="geometricPrecision" font-family="sans-serif" transform="matrix(1,0,0,1,-433,-217)" stroke-linecap="butt">
      <text x="714.4215" xml:space="preserve" y="388.6184" clip-path="url(#clipPath2)" stroke="none">B</text>
      <rect fill="none" x="703.5377" width="30" height="30" y="369.4641" clip-path="url(#clipPath2)"/>
    </g>
    <g fill="rgb(255,204,0)" text-rendering="geometricPrecision" shape-rendering="geometricPrecision" transform="matrix(1,0,0,1,-433,-217)" stroke="rgb(255,204,0)">
      <rect x="733.5377" width="30" height="30" y="369.4641" clip-path="url(#clipPath2)" stroke="none"/>
    </g>
    <g text-rendering="geometricPrecision" stroke-miterlimit="1.45" shape-rendering="geometricPrecision" transform="matrix(1,0,0,1,-433,-217)" stroke-linecap="butt">
      <rect fill="none" x="733.5377" width="30" height="30" y="369.4641" clip-path="url(#clipPath2)"/>
      <path fill="none" d="M643.5377 384.4641 L686.3688 384.4641 L688.5338 384.4641" clip-path="url(#clipPath2)"/>
      <path d="M688.5338 384.4641 L676.5338 379.4641 L679.5338 384.4641 L676.5338 389.4641 Z" clip-path="url(#clipPath2)" stroke="none"/>
      <path fill="none" d="M733.5377 444.4795 L733.5377 422.4425" clip-path="url(#clipPath2)"/>
      <path d="M733.5377 414.4425 L728.5377 426.4425 L733.5377 423.4425 L738.5377 426.4425 Z" clip-path="url(#clipPath2)" stroke="none"/>
      <path fill="none" d="M763.5377 384.4641 L800.4938 384.4641" clip-path="url(#clipPath2)"/>
      <path d="M808.4938 384.4641 L796.4938 379.4641 L799.4938 384.4641 L796.4938 389.4641 Z" clip-path="url(#clipPath2)" stroke="none"/>
    </g>
    <g fill="rgb(245,245,245)" text-rendering="geometricPrecision" shape-rendering="geometricPrecision" transform="matrix(1,0,0,1,-433,-217)" stroke="rgb(245,245,245)">
      <rect x="448.5377" y="354.4641" clip-path="url(#clipPath2)" width="90" rx="4" ry="4" height="60" stroke="none"/>
    </g>
    <g text-rendering="geometricPrecision" stroke-miterlimit="1.45" stroke-dasharray="6,2" shape-rendering="geometricPrecision" transform="matrix(1,0,0,1,-433,-217)" stroke-linecap="butt">
      <rect x="448.5377" y="354.4641" clip-path="url(#clipPath2)" fill="none" width="90" rx="4" ry="4" height="60"/>
    </g>
    <g fill="red" text-rendering="geometricPrecision" shape-rendering="geometricPrecision" transform="matrix(1,0,0,1,-433,-217)" stroke="red">
      <rect x="463.5377" width="30" height="30" y="369.4641" clip-path="url(#clipPath2)" stroke="none"/>
    </g>
    <g text-rendering="geometricPrecision" stroke-miterlimit="1.45" shape-rendering="geometricPrecision" font-family="sans-serif" transform="matrix(1,0,0,1,-433,-217)" stroke-linecap="butt">
      <text x="473.9176" xml:space="preserve" y="388.6184" clip-path="url(#clipPath2)" stroke="none">D</text>
      <rect fill="none" x="463.5377" width="30" height="30" y="369.4641" clip-path="url(#clipPath2)"/>
    </g>
    <g fill="red" text-rendering="geometricPrecision" shape-rendering="geometricPrecision" transform="matrix(1,0,0,1,-433,-217)" stroke="red">
      <rect x="493.5377" width="30" height="30" y="369.4641" clip-path="url(#clipPath2)" stroke="none"/>
    </g>
    <g text-rendering="geometricPrecision" stroke-miterlimit="1.45" shape-rendering="geometricPrecision" transform="matrix(1,0,0,1,-433,-217)" stroke-linecap="butt">
      <rect fill="none" x="493.5377" width="30" height="30" y="369.4641" clip-path="url(#clipPath2)"/>
      <path fill="none" d="M493.5377 324.499 L493.5377 346.4523" clip-path="url(#clipPath2)"/>
      <path d="M493.5377 354.4523 L498.5377 342.4523 L493.5377 345.4523 L488.5377 342.4523 Z" clip-path="url(#clipPath2)" stroke="none"/>
      <path fill="none" d="M523.5377 384.4641 L560.4938 384.4641" clip-path="url(#clipPath2)"/>
      <path d="M568.4938 384.4641 L556.4938 379.4641 L559.4938 384.4641 L556.4938 389.4641 Z" clip-path="url(#clipPath2)" stroke="none"/>
    </g>
    <g fill="rgb(245,245,245)" text-rendering="geometricPrecision" shape-rendering="geometricPrecision" transform="matrix(1,0,0,1,-433,-217)" stroke="rgb(245,245,245)">
      <rect x="688.5377" y="264.4641" clip-path="url(#clipPath2)" width="90" rx="4" ry="4" height="60" stroke="none"/>
    </g>
    <g text-rendering="geometricPrecision" stroke-miterlimit="1.45" stroke-dasharray="6,2" shape-rendering="geometricPrecision" transform="matrix(1,0,0,1,-433,-217)" stroke-linecap="butt">
      <rect x="688.5377" y="264.4641" clip-path="url(#clipPath2)" fill="none" width="90" rx="4" ry="4" height="60"/>
    </g>
    <g fill="rgb(51,102,255)" text-rendering="geometricPrecision" shape-rendering="geometricPrecision" transform="matrix(1,0,0,1,-433,-217)" stroke="rgb(51,102,255)">
      <rect x="703.5377" width="30" height="30" y="279.4641" clip-path="url(#clipPath2)" stroke="none"/>
    </g>
    <g text-rendering="geometricPrecision" stroke-miterlimit="1.45" shape-rendering="geometricPrecision" font-family="sans-serif" transform="matrix(1,0,0,1,-433,-217)" stroke-linecap="butt">
      <text x="714.7467" xml:space="preserve" y="298.6184" clip-path="url(#clipPath2)" stroke="none">E</text>
      <rect fill="none" x="703.5377" width="30" height="30" y="279.4641" clip-path="url(#clipPath2)"/>
    </g>
    <g fill="rgb(51,102,255)" text-rendering="geometricPrecision" shape-rendering="geometricPrecision" transform="matrix(1,0,0,1,-433,-217)" stroke="rgb(51,102,255)">
      <rect x="733.5377" width="30" height="30" y="279.4641" clip-path="url(#clipPath2)" stroke="none"/>
    </g>
    <g text-rendering="geometricPrecision" stroke-miterlimit="1.45" shape-rendering="geometricPrecision" transform="matrix(1,0,0,1,-433,-217)" stroke-linecap="butt">
      <rect fill="none" x="733.5377" width="30" height="30" y="279.4641" clip-path="url(#clipPath2)"/>
      <path fill="none" d="M628.0495 290.0403 L680.5526 292.2421" clip-path="url(#clipPath2)"/>
      <path d="M688.5455 292.5773 L676.7656 287.0789 L679.5534 292.2002 L676.3466 297.0701 Z" clip-path="url(#clipPath2)" stroke="none"/>
      <path fill="none" d="M746.0377 309.4641 L739.8517 346.5803" clip-path="url(#clipPath2)"/>
      <path d="M738.5365 354.4715 L745.4412 343.4567 L740.0161 345.5939 L735.5773 341.8127 Z" clip-path="url(#clipPath2)" stroke="none"/>
    </g>
  </g>
</svg>
