<?xml version="1.0" encoding="UTF-8"?><svg xmlns="http://www.w3.org/2000/svg" xmlns:xlink="http://www.w3.org/1999/xlink" fill-opacity="1" color-rendering="auto" color-interpolation="auto" text-rendering="auto" stroke="black" stroke-linecap="square" width="381" stroke-miterlimit="10" shape-rendering="auto" stroke-opacity="1" fill="black" stroke-dasharray="none" font-weight="normal" stroke-width="1" height="207" font-family="'Dialog'" font-style="normal" stroke-linejoin="miter" font-size="12px" stroke-dashoffset="0" image-rendering="auto">
  <!--Generated by ySVG 2.5-->
  <defs id="genericDefs"/>
  <g>
    <defs id="defs1">
      <clipPath clipPathUnits="userSpaceOnUse" id="clipPath1">
        <path d="M0 0 L381 0 L381 207 L0 207 L0 0 Z"/>
      </clipPath>
      <clipPath clipPathUnits="userSpaceOnUse" id="clipPath2">
        <path d="M299 218 L680 218 L680 425 L299 425 L299 218 Z"/>
      </clipPath>
      <clipPath clipPathUnits="userSpaceOnUse" id="clipPath3">
        <path d="M-51.9918 -102.8772 L329.0082 -102.8772 L329.0082 104.1228 L-51.9918 104.1228 L-51.9918 -102.8772 Z"/>
      </clipPath>
    </defs>
    <g fill="white" text-rendering="geometricPrecision" shape-rendering="geometricPrecision" transform="translate(-299,-218)" stroke="white">
      <rect x="299" width="381" height="207" y="218" clip-path="url(#clipPath2)" stroke="none"/>
    </g>
    <g text-rendering="geometricPrecision" shape-rendering="geometricPrecision" transform="matrix(1,0,0,1,51.9918,102.8772)">
      <g clip-path="url(#clipPath3)">
        <svg xml:space="preserve" opacity="1" writing-mode="lr-tb" stop-color="rgb(0, 0, 0)" shape-rendering="auto" glyph-orientation-horizontal="0deg" color-profile="auto" lighting-color="rgb(255, 255, 255)" color="rgb(0, 0, 0)" font-weight="400" alignment-baseline="auto" font-style="normal" version="1.1" color-interpolation-filters="linearrgb" text-anchor="start" stroke-linecap="butt" color-interpolation="srgb" font-variant="normal" word-spacing="normal" fill-opacity="1" text-rendering="auto" clip-path="none" text-decoration="none" letter-spacing="normal" viewBox="0 0 57 65" glyph-orientation-vertical="auto" display="inline" font-size-adjust="none" overflow="visible" fill="rgb(0, 0, 0)" font-stretch="normal" stroke-dasharray="none" id="svg1.Ebene_1" stroke-miterlimit="4" stop-opacity="1" color-rendering="auto" font-size="12" pointer-events="visiblepainted" mask="none" direction="ltr" baseline-shift="baseline" enable-background="new 0 0 57 65" fill-rule="nonzero" image-rendering="auto" stroke-dashoffset="0" width="57px" marker-end="none" clip="auto" cursor="auto" stroke="none" filter="none" visibility="visible" kerning="auto" stroke-width="1" font-family="&quot;Arial&quot;,&quot;Helvetica&quot;,sans-serif" flood-opacity="1" clip-rule="nonzero" src="none" height="65px" unicode-bidi="normal" stroke-linejoin="miter" stroke-opacity="1" flood-color="rgb(0, 0, 0)" dominant-baseline="auto" marker-start="none" x="0px" marker-mid="none" y="0px">
<g>
	<polygon fill="#FAE1AA" points="44.365,49.031 13.101,53.422    12.191,30.465 43.408,31.092  " stroke="#F9C969" stroke-linecap="round" stroke-linejoin="round"/>
	
		<linearGradient gradientTransform="matrix(1 0 0 1 0.3203 -3091.7656)" x1="26.3398" x2="27.5807" gradientUnits="userSpaceOnUse" y1="3115.7266" y2="3145.5239" id="svg1.SVGID_1_">
		<stop offset="0.2711" style="stop-color:#FFAB4F"/>
		<stop offset="1" style="stop-color:#FFD28F"/>
	</linearGradient>
	<path fill="url(#svg1.SVGID_1_)" d="M49.529,51.225c-4.396-4.396-10.951-5.884-12.063-6.109   V37.8H19.278c0,0,0.038,6.903,0,6.868c0,0-6.874,0.997-12.308,6.432C1.378,56.691,0.5,62.77,0.5,62.77   c0,1.938,1.575,3.492,3.523,3.492h48.51c1.947,0,3.521-1.558,3.521-3.492C56.055,62.768,54.211,55.906,49.529,51.225z" stroke-miterlimit="10" stroke="#ED9135"/>
	
		<radialGradient gradientTransform="matrix(1 0 0 1 0.3203 -3091.7656)" gradientUnits="userSpaceOnUse" r="23.425" cx="27.5835" id="svg1.face_x5F_white_1_" cy="3117.4922" fx="23.0139" fy="3115.0024">
		<stop offset="0" style="stop-color:#FFD28F"/>
		<stop offset="1" style="stop-color:#FFAB4F"/>
	</radialGradient>
	<path fill="url(#svg1.face_x5F_white_1_)" id="svg1.face_x5F_white_3_" d="M43.676,23.357   c0.086,10.2-6.738,18.52-15.25,18.586c-8.5,0.068-15.464-8.146-15.55-18.344C12.794,13.4,19.618,5.079,28.123,5.012   C36.627,4.945,43.59,13.158,43.676,23.357z" stroke-miterlimit="10" stroke="#ED9135"/>
	
		<linearGradient gradientTransform="matrix(0.275 0 0 -0.2733 -1752.8849 -3351.7349)" x1="6468.501" x2="6492.1304" gradientUnits="userSpaceOnUse" y1="-12291.5195" y2="-12384.9688" id="svg1.face_highlight_1_">
		<stop offset="0" style="stop-color:#FFFFFF;stop-opacity:0.24"/>
		<stop offset="1" style="stop-color:#FFFFFF;stop-opacity:0.16"/>
	</linearGradient>
	<path fill="url(#svg1.face_highlight_1_)" id="svg1.face_highlight_3_" d="M28.415,5.625c-6.035,0.047-10.747,4.493-12.787,10.386   c-0.664,1.919-0.294,4.043,0.98,5.629c2.73,3.398,5.729,6.283,9.461,8.088c3.137,1.518,7.535,2.385,11.893,1.247   c2.274-0.592,3.988-2.459,4.375-4.766c0.187-1.094,0.293-2.289,0.283-3.553C42.54,13.244,36.729,5.56,28.415,5.625z"/>
	<path fill="#FAE1AA" d="M17.754,45.004   c-0.413-3.02-0.771-6.182-0.946-9.033c-0.574-9.349,2.886-17.721,2.886-17.721l0.882-2.078l0.94,2.419l1.872-4.956l-0.049,4.553   l1.311-0.749l0.701-1.653L25.715,18l1.055-0.988l2.13-0.729L29.84,17l0.479-2.375l0.834,2.554l1.125-1.024l1.68-0.214l1.07,1.372   l-0.243-4.246l1.883,3.967L37.611,17c0,0,5.595,10.622,3.313,29.1c2.154,0.76,4.916,2.016,7.316,3.976   c0.001-0.001,0.011-0.013,0.011-0.013L44.111,19.38C43.079,12.873,38.752,2.599,28.73,2.648   C5.153,2.568,13.025,42.055,8.945,49.334c-0.007,0.014-0.012,0.025-0.02,0.039C12.292,46.729,15.809,45.516,17.754,45.004z" stroke="#E2B354" stroke-linecap="round" stroke-linejoin="round"/>
	
		<radialGradient gradientTransform="matrix(1 0 0 -1 0.04 64.1543)" id="svg1.collar_x5F_body_1_" r="32.4004" cx="15.2412" gradientUnits="userSpaceOnUse" cy="9.9829">
		<stop offset="0" style="stop-color:#FCB57A"/>
		<stop offset="1" style="stop-color:#FF8C36"/>
	</radialGradient>
	<path fill="url(#svg1.collar_x5F_body_1_)" d="M0.5,62.768c0,1.938,1.575,3.494,3.523,3.494   h48.51c1.947,0,3.521-1.559,3.521-3.494c0,0-1.844-6.861-6.525-11.543c-4.815-4.813-11.244-6.146-11.244-6.146   c-1.771,1.655-5.61,2.802-10.063,2.802c-4.453,0-8.292-1.146-10.063-2.802c0,0-5.755,0.586-11.189,6.021   C1.378,56.689,0.5,62.768,0.5,62.768z" id="svg1.collar_x5F_body_2_" stroke="#E55E03"/>
	
		<radialGradient gradientTransform="matrix(1 0 0 -1 0.04 64.1543)" id="svg1.collar_x5F_r_1_" r="9.2823" cx="31.5801" gradientUnits="userSpaceOnUse" cy="15.957">
		<stop offset="0" style="stop-color:#FCB57A"/>
		<stop offset="1" style="stop-color:#FF8C36"/>
	</radialGradient>
	<path fill="url(#svg1.collar_x5F_r_1_)" d="M38.159,41.381c0,0-0.574,2.369-3.013,4.441   c-2.108,1.795-5.783,2.072-5.783,2.072l3.974,6.217c0,0,2.957-1.637,5.009-3.848c1.922-2.072,1.37-5.479,1.37-5.479L38.159,41.381z   " id="svg1.collar_x5F_r_2_" stroke="#E55E03"/>
	
		<radialGradient gradientTransform="matrix(1 0 0 -1 0.04 64.1543)" id="svg1.collar_x5F_l_1_" r="9.2843" cx="19.2178" gradientUnits="userSpaceOnUse" cy="15.916">
		<stop offset="0" style="stop-color:#FCB57A"/>
		<stop offset="1" style="stop-color:#FF8C36"/>
	</radialGradient>
	<path fill="url(#svg1.collar_x5F_l_1_)" d="M18.63,41.422c0,0,0.576,2.369,3.012,4.441   c2.109,1.793,5.785,2.072,5.785,2.072l-3.974,6.217c0,0-2.957-1.637-5.007-3.85c-1.922-2.072-1.37-5.48-1.37-5.48L18.63,41.422z" id="svg1.collar_x5F_l_2_" stroke="#E55E03"/>
	<circle fill="#E55E03" r="0.584" id="svg1.Knob2_2_" cx="28.258" cy="56.254" stroke="#E55E03"/>
	<circle fill="#E55E03" r="0.584" id="svg1.Knob1_2_" cx="28.297" cy="62.499" stroke="#E55E03"/>
</g>
</svg>
      </g>
    </g>
    <g text-rendering="geometricPrecision" stroke-miterlimit="1.45" shape-rendering="geometricPrecision" font-family="sans-serif" transform="matrix(1,0,0,1,-299,-218)" stroke-linecap="butt">
      <text x="316.1048" xml:space="preserve" y="404.7779" clip-path="url(#clipPath2)" stroke="none">push((push(A, B)), C)</text>
    </g>
    <g fill="rgb(245,245,245)" text-rendering="geometricPrecision" shape-rendering="geometricPrecision" transform="matrix(1,0,0,1,-299,-218)" stroke="rgb(245,245,245)">
      <rect x="574.2688" y="233" clip-path="url(#clipPath2)" width="90" rx="4" ry="4" height="60" stroke="none"/>
    </g>
    <g text-rendering="geometricPrecision" stroke-miterlimit="1.45" stroke-dasharray="6,2" shape-rendering="geometricPrecision" transform="matrix(1,0,0,1,-299,-218)" stroke-linecap="butt">
      <rect x="574.2688" y="233" clip-path="url(#clipPath2)" fill="none" width="90" rx="4" ry="4" height="60"/>
    </g>
    <g fill="rgb(255,204,0)" text-rendering="geometricPrecision" shape-rendering="geometricPrecision" transform="matrix(1,0,0,1,-299,-218)" stroke="rgb(255,204,0)">
      <rect x="589.2688" width="30" height="30" y="248" clip-path="url(#clipPath2)" stroke="none"/>
    </g>
    <g text-rendering="geometricPrecision" stroke-miterlimit="1.45" shape-rendering="geometricPrecision" font-family="sans-serif" transform="matrix(1,0,0,1,-299,-218)" stroke-linecap="butt">
      <text x="600.1644" xml:space="preserve" y="267.1543" clip-path="url(#clipPath2)" stroke="none">A</text>
      <rect fill="none" x="589.2688" width="30" height="30" y="248" clip-path="url(#clipPath2)"/>
    </g>
    <g fill="rgb(255,204,0)" text-rendering="geometricPrecision" shape-rendering="geometricPrecision" transform="matrix(1,0,0,1,-299,-218)" stroke="rgb(255,204,0)">
      <rect x="619.2688" width="30" height="30" y="248" clip-path="url(#clipPath2)" stroke="none"/>
    </g>
    <g text-rendering="geometricPrecision" stroke-miterlimit="1.45" shape-rendering="geometricPrecision" transform="matrix(1,0,0,1,-299,-218)" stroke-linecap="butt">
      <rect fill="none" x="619.2688" width="30" height="30" y="248" clip-path="url(#clipPath2)"/>
    </g>
    <g fill="rgb(245,245,245)" text-rendering="geometricPrecision" shape-rendering="geometricPrecision" transform="matrix(1,0,0,1,-299,-218)" stroke="rgb(245,245,245)">
      <rect x="334.2688" y="233" clip-path="url(#clipPath2)" width="90" rx="4" ry="4" height="60" stroke="none"/>
    </g>
    <g text-rendering="geometricPrecision" stroke-miterlimit="1.45" stroke-dasharray="6,2" shape-rendering="geometricPrecision" transform="matrix(1,0,0,1,-299,-218)" stroke-linecap="butt">
      <rect x="334.2688" y="233" clip-path="url(#clipPath2)" fill="none" width="90" rx="4" ry="4" height="60"/>
    </g>
    <g fill="rgb(255,204,0)" text-rendering="geometricPrecision" shape-rendering="geometricPrecision" transform="matrix(1,0,0,1,-299,-218)" stroke="rgb(255,204,0)">
      <rect x="349.2688" width="30" height="30" y="248" clip-path="url(#clipPath2)" stroke="none"/>
    </g>
    <g text-rendering="geometricPrecision" stroke-miterlimit="1.45" shape-rendering="geometricPrecision" font-family="sans-serif" transform="matrix(1,0,0,1,-299,-218)" stroke-linecap="butt">
      <text x="360.0794" xml:space="preserve" y="267.1543" clip-path="url(#clipPath2)" stroke="none">C</text>
      <rect fill="none" x="349.2688" width="30" height="30" y="248" clip-path="url(#clipPath2)"/>
    </g>
    <g fill="rgb(255,204,0)" text-rendering="geometricPrecision" shape-rendering="geometricPrecision" transform="matrix(1,0,0,1,-299,-218)" stroke="rgb(255,204,0)">
      <rect x="379.2688" width="30" height="30" y="248" clip-path="url(#clipPath2)" stroke="none"/>
    </g>
    <g text-rendering="geometricPrecision" stroke-miterlimit="1.45" shape-rendering="geometricPrecision" transform="matrix(1,0,0,1,-299,-218)" stroke-linecap="butt">
      <rect fill="none" x="379.2688" width="30" height="30" y="248" clip-path="url(#clipPath2)"/>
      <path fill="none" d="M379.2689 322.9987 L379.2689 301.0287" clip-path="url(#clipPath2)"/>
      <path d="M379.2689 293.0287 L374.2689 305.0287 L379.2689 302.0287 L384.2689 305.0287 Z" clip-path="url(#clipPath2)" stroke="none"/>
    </g>
    <g fill="rgb(245,245,245)" text-rendering="geometricPrecision" shape-rendering="geometricPrecision" transform="matrix(1,0,0,1,-299,-218)" stroke="rgb(245,245,245)">
      <rect x="454.2688" y="233" clip-path="url(#clipPath2)" width="90" rx="4" ry="4" height="60" stroke="none"/>
    </g>
    <g text-rendering="geometricPrecision" stroke-miterlimit="1.45" stroke-dasharray="6,2" shape-rendering="geometricPrecision" transform="matrix(1,0,0,1,-299,-218)" stroke-linecap="butt">
      <rect x="454.2688" y="233" clip-path="url(#clipPath2)" fill="none" width="90" rx="4" ry="4" height="60"/>
    </g>
    <g fill="rgb(255,204,0)" text-rendering="geometricPrecision" shape-rendering="geometricPrecision" transform="matrix(1,0,0,1,-299,-218)" stroke="rgb(255,204,0)">
      <rect x="469.2688" width="30" height="30" y="248" clip-path="url(#clipPath2)" stroke="none"/>
    </g>
    <g text-rendering="geometricPrecision" stroke-miterlimit="1.45" shape-rendering="geometricPrecision" font-family="sans-serif" transform="matrix(1,0,0,1,-299,-218)" stroke-linecap="butt">
      <text x="480.1526" xml:space="preserve" y="267.1543" clip-path="url(#clipPath2)" stroke="none">B</text>
      <rect fill="none" x="469.2688" width="30" height="30" y="248" clip-path="url(#clipPath2)"/>
    </g>
    <g fill="rgb(255,204,0)" text-rendering="geometricPrecision" shape-rendering="geometricPrecision" transform="matrix(1,0,0,1,-299,-218)" stroke="rgb(255,204,0)">
      <rect x="499.2688" width="30" height="30" y="248" clip-path="url(#clipPath2)" stroke="none"/>
    </g>
    <g text-rendering="geometricPrecision" stroke-miterlimit="1.45" shape-rendering="geometricPrecision" transform="matrix(1,0,0,1,-299,-218)" stroke-linecap="butt">
      <rect fill="none" x="499.2688" width="30" height="30" y="248" clip-path="url(#clipPath2)"/>
      <path fill="none" d="M409.2689 263 L452.1 263 L454.265 263" clip-path="url(#clipPath2)"/>
      <path d="M454.265 263 L442.265 258 L445.265 263 L442.265 268 Z" clip-path="url(#clipPath2)" stroke="none"/>
      <path fill="none" d="M529.2689 263 L566.2249 263" clip-path="url(#clipPath2)"/>
      <path d="M574.2249 263 L562.2249 258 L565.2249 263 L562.2249 268 Z" clip-path="url(#clipPath2)" stroke="none"/>
    </g>
  </g>
</svg>
