<?xml version="1.0" encoding="UTF-8"?><svg xmlns="http://www.w3.org/2000/svg" xmlns:xlink="http://www.w3.org/1999/xlink" fill-opacity="1" color-rendering="auto" color-interpolation="auto" text-rendering="auto" stroke="black" stroke-linecap="square" width="700" stroke-miterlimit="10" shape-rendering="auto" stroke-opacity="1" fill="black" stroke-dasharray="none" font-weight="normal" stroke-width="1" height="363" font-family="'Dialog'" font-style="normal" stroke-linejoin="miter" font-size="12px" stroke-dashoffset="0" image-rendering="auto">
  <!--Generated by ySVG 2.5-->
  <defs id="genericDefs"/>
  <g>
    <defs id="defs1">
      <clipPath clipPathUnits="userSpaceOnUse" id="clipPath1">
        <path d="M0 0 L700 0 L700 363 L0 363 L0 0 Z"/>
      </clipPath>
      <clipPath clipPathUnits="userSpaceOnUse" id="clipPath2">
        <path d="M126 129 L826 129 L826 492 L126 492 L126 129 Z"/>
      </clipPath>
      <clipPath clipPathUnits="userSpaceOnUse" id="clipPath3">
        <path d="M-96.423 -13.5576 L603.577 -13.5576 L603.577 349.4424 L-96.423 349.4424 L-96.423 -13.5576 Z"/>
      </clipPath>
      <clipPath clipPathUnits="userSpaceOnUse" id="clipPath4">
        <path d="M-566.723 -12.3976 L133.2771 -12.3976 L133.2771 350.6024 L-566.723 350.6024 L-566.723 -12.3976 Z"/>
      </clipPath>
    </defs>
    <g fill="white" text-rendering="geometricPrecision" shape-rendering="geometricPrecision" transform="translate(-126,-129)" stroke="white">
      <rect x="126" width="700" height="363" y="129" clip-path="url(#clipPath2)" stroke="none"/>
    </g>
    <g fill="silver" text-rendering="geometricPrecision" shape-rendering="geometricPrecision" transform="matrix(1,0,0,1,-126,-129)" stroke="silver">
      <rect x="336" y="147" clip-path="url(#clipPath2)" width="90" rx="4" ry="4" height="60" stroke="none"/>
    </g>
    <g text-rendering="geometricPrecision" stroke-miterlimit="1.45" stroke-dasharray="6,2" shape-rendering="geometricPrecision" transform="matrix(1,0,0,1,-126,-129)" stroke-linecap="butt">
      <rect x="336" y="147" clip-path="url(#clipPath2)" fill="none" width="90" rx="4" ry="4" height="60"/>
    </g>
    <g fill="rgb(255,204,0)" text-rendering="geometricPrecision" shape-rendering="geometricPrecision" transform="matrix(1,0,0,1,-126,-129)" stroke="rgb(255,204,0)">
      <rect x="351" width="30" height="30" y="162" clip-path="url(#clipPath2)" stroke="none"/>
    </g>
    <g text-rendering="geometricPrecision" stroke-miterlimit="1.45" shape-rendering="geometricPrecision" font-family="sans-serif" transform="matrix(1,0,0,1,-126,-129)" stroke-linecap="butt">
      <text x="362.1826" xml:space="preserve" y="181.1543" clip-path="url(#clipPath2)" stroke="none">7</text>
      <rect fill="none" x="351" width="30" height="30" y="162" clip-path="url(#clipPath2)"/>
    </g>
    <g fill="rgb(255,204,0)" text-rendering="geometricPrecision" shape-rendering="geometricPrecision" transform="matrix(1,0,0,1,-126,-129)" stroke="rgb(255,204,0)">
      <rect x="381" width="30" height="30" y="162" clip-path="url(#clipPath2)" stroke="none"/>
    </g>
    <g text-rendering="geometricPrecision" stroke-miterlimit="1.45" shape-rendering="geometricPrecision" transform="matrix(1,0,0,1,-126,-129)" stroke-linecap="butt">
      <rect fill="none" x="381" width="30" height="30" y="162" clip-path="url(#clipPath2)"/>
    </g>
    <g fill="silver" text-rendering="geometricPrecision" shape-rendering="geometricPrecision" transform="matrix(1,0,0,1,-126,-129)" stroke="silver">
      <rect x="351" y="237" clip-path="url(#clipPath2)" width="90" rx="4" ry="4" height="60" stroke="none"/>
    </g>
    <g text-rendering="geometricPrecision" stroke-miterlimit="1.45" stroke-dasharray="6,2" shape-rendering="geometricPrecision" transform="matrix(1,0,0,1,-126,-129)" stroke-linecap="butt">
      <rect x="351" y="237" clip-path="url(#clipPath2)" fill="none" width="90" rx="4" ry="4" height="60"/>
    </g>
    <g fill="rgb(255,204,0)" text-rendering="geometricPrecision" shape-rendering="geometricPrecision" transform="matrix(1,0,0,1,-126,-129)" stroke="rgb(255,204,0)">
      <rect x="366" width="30" height="30" y="252" clip-path="url(#clipPath2)" stroke="none"/>
    </g>
    <g text-rendering="geometricPrecision" stroke-miterlimit="1.45" shape-rendering="geometricPrecision" font-family="sans-serif" transform="matrix(1,0,0,1,-126,-129)" stroke-linecap="butt">
      <text x="377.1826" xml:space="preserve" y="271.1543" clip-path="url(#clipPath2)" stroke="none">0</text>
      <rect fill="none" x="366" width="30" height="30" y="252" clip-path="url(#clipPath2)"/>
    </g>
    <g fill="rgb(255,204,0)" text-rendering="geometricPrecision" shape-rendering="geometricPrecision" transform="matrix(1,0,0,1,-126,-129)" stroke="rgb(255,204,0)">
      <rect x="396" width="30" height="30" y="252" clip-path="url(#clipPath2)" stroke="none"/>
    </g>
    <g text-rendering="geometricPrecision" stroke-miterlimit="1.45" shape-rendering="geometricPrecision" font-family="sans-serif" transform="matrix(1,0,0,1,-126,-129)" stroke-linecap="butt">
      <text x="407.1826" xml:space="preserve" y="271.1543" clip-path="url(#clipPath2)" stroke="none">1</text>
      <rect fill="none" x="396" width="30" height="30" y="252" clip-path="url(#clipPath2)"/>
      <path fill="none" d="M396 192 L396 229.0073" clip-path="url(#clipPath2)"/>
      <path d="M396 237.0073 L401 225.0073 L396 228.0073 L391 225.0073 Z" clip-path="url(#clipPath2)" stroke="none"/>
    </g>
    <g fill="silver" text-rendering="geometricPrecision" shape-rendering="geometricPrecision" transform="matrix(1,0,0,1,-126,-129)" stroke="silver">
      <rect x="441" y="327" clip-path="url(#clipPath2)" width="90" rx="4" ry="4" height="60" stroke="none"/>
    </g>
    <g text-rendering="geometricPrecision" stroke-miterlimit="1.45" stroke-dasharray="6,2" shape-rendering="geometricPrecision" transform="matrix(1,0,0,1,-126,-129)" stroke-linecap="butt">
      <rect x="441" y="327" clip-path="url(#clipPath2)" fill="none" width="90" rx="4" ry="4" height="60"/>
    </g>
    <g fill="rgb(255,204,0)" text-rendering="geometricPrecision" shape-rendering="geometricPrecision" transform="matrix(1,0,0,1,-126,-129)" stroke="rgb(255,204,0)">
      <rect x="456" width="30" height="30" y="342" clip-path="url(#clipPath2)" stroke="none"/>
    </g>
    <g text-rendering="geometricPrecision" stroke-miterlimit="1.45" shape-rendering="geometricPrecision" font-family="sans-serif" transform="matrix(1,0,0,1,-126,-129)" stroke-linecap="butt">
      <text x="467.1826" xml:space="preserve" y="361.1543" clip-path="url(#clipPath2)" stroke="none">0</text>
      <rect fill="none" x="456" width="30" height="30" y="342" clip-path="url(#clipPath2)"/>
    </g>
    <g fill="rgb(255,204,0)" text-rendering="geometricPrecision" shape-rendering="geometricPrecision" transform="matrix(1,0,0,1,-126,-129)" stroke="rgb(255,204,0)">
      <rect x="486" width="30" height="30" y="342" clip-path="url(#clipPath2)" stroke="none"/>
    </g>
    <g text-rendering="geometricPrecision" stroke-miterlimit="1.45" shape-rendering="geometricPrecision" font-family="sans-serif" transform="matrix(1,0,0,1,-126,-129)" stroke-linecap="butt">
      <text x="497.1826" xml:space="preserve" y="361.1543" clip-path="url(#clipPath2)" stroke="none">1</text>
      <rect fill="none" x="486" width="30" height="30" y="342" clip-path="url(#clipPath2)"/>
      <path fill="none" d="M423.5 282 L455.8846 320.8615" clip-path="url(#clipPath2)"/>
      <path d="M461.0061 327.0073 L457.165 314.5877 L455.2444 320.0933 L449.4828 320.9896 Z" clip-path="url(#clipPath2)" stroke="none"/>
    </g>
    <g fill="lime" text-rendering="geometricPrecision" shape-rendering="geometricPrecision" transform="matrix(1,0,0,1,-126,-129)" stroke="lime">
      <rect x="261" y="327" clip-path="url(#clipPath2)" width="90" rx="4" ry="4" height="60" stroke="none"/>
    </g>
    <g text-rendering="geometricPrecision" stroke-miterlimit="1.45" stroke-dasharray="6,2" shape-rendering="geometricPrecision" transform="matrix(1,0,0,1,-126,-129)" stroke-linecap="butt">
      <rect x="261" y="327" clip-path="url(#clipPath2)" fill="none" width="90" rx="4" ry="4" height="60"/>
    </g>
    <g fill="rgb(255,204,0)" text-rendering="geometricPrecision" shape-rendering="geometricPrecision" transform="matrix(1,0,0,1,-126,-129)" stroke="rgb(255,204,0)">
      <rect x="276" width="30" height="30" y="342" clip-path="url(#clipPath2)" stroke="none"/>
    </g>
    <g text-rendering="geometricPrecision" stroke-miterlimit="1.45" shape-rendering="geometricPrecision" font-family="sans-serif" transform="matrix(1,0,0,1,-126,-129)" stroke-linecap="butt">
      <text x="287.1826" xml:space="preserve" y="361.1543" clip-path="url(#clipPath2)" stroke="none">0</text>
      <rect fill="none" x="276" width="30" height="30" y="342" clip-path="url(#clipPath2)"/>
    </g>
    <g fill="rgb(255,204,0)" text-rendering="geometricPrecision" shape-rendering="geometricPrecision" transform="matrix(1,0,0,1,-126,-129)" stroke="rgb(255,204,0)">
      <rect x="306" width="30" height="30" y="342" clip-path="url(#clipPath2)" stroke="none"/>
    </g>
    <g text-rendering="geometricPrecision" stroke-miterlimit="1.45" shape-rendering="geometricPrecision" font-family="sans-serif" transform="matrix(1,0,0,1,-126,-129)" stroke-linecap="butt">
      <text x="317.1826" xml:space="preserve" y="361.1543" clip-path="url(#clipPath2)" stroke="none">1</text>
      <rect fill="none" x="306" width="30" height="30" y="342" clip-path="url(#clipPath2)"/>
      <path fill="none" d="M368.5 282 L336.1154 320.8615" clip-path="url(#clipPath2)"/>
      <path d="M330.9939 327.0073 L342.5172 320.9896 L336.7556 320.0933 L334.835 314.5877 Z" clip-path="url(#clipPath2)" stroke="none"/>
    </g>
    <g fill="silver" text-rendering="geometricPrecision" shape-rendering="geometricPrecision" transform="matrix(1,0,0,1,-126,-129)" stroke="silver">
      <rect x="561" y="417" clip-path="url(#clipPath2)" width="90" rx="4" ry="4" height="60" stroke="none"/>
    </g>
    <g text-rendering="geometricPrecision" stroke-miterlimit="1.45" stroke-dasharray="6,2" shape-rendering="geometricPrecision" transform="matrix(1,0,0,1,-126,-129)" stroke-linecap="butt">
      <rect x="561" y="417" clip-path="url(#clipPath2)" fill="none" width="90" rx="4" ry="4" height="60"/>
    </g>
    <g fill="rgb(255,204,0)" text-rendering="geometricPrecision" shape-rendering="geometricPrecision" transform="matrix(1,0,0,1,-126,-129)" stroke="rgb(255,204,0)">
      <rect x="576" width="30" height="30" y="432" clip-path="url(#clipPath2)" stroke="none"/>
    </g>
    <g text-rendering="geometricPrecision" stroke-miterlimit="1.45" shape-rendering="geometricPrecision" font-family="sans-serif" transform="matrix(1,0,0,1,-126,-129)" stroke-linecap="butt">
      <text x="586.3506" xml:space="preserve" y="451.1543" clip-path="url(#clipPath2)" stroke="none">G</text>
      <rect fill="none" x="576" width="30" height="30" y="432" clip-path="url(#clipPath2)"/>
    </g>
    <g fill="rgb(255,204,0)" text-rendering="geometricPrecision" shape-rendering="geometricPrecision" transform="matrix(1,0,0,1,-126,-129)" stroke="rgb(255,204,0)">
      <rect x="606" width="30" height="30" y="432" clip-path="url(#clipPath2)" stroke="none"/>
    </g>
    <g text-rendering="geometricPrecision" stroke-miterlimit="1.45" shape-rendering="geometricPrecision" transform="matrix(1,0,0,1,-126,-129)" stroke-linecap="butt">
      <rect fill="none" x="606" width="30" height="30" y="432" clip-path="url(#clipPath2)"/>
      <path fill="none" d="M516 369.8571 L564.9235 411.7916" clip-path="url(#clipPath2)"/>
      <path d="M570.9976 416.9979 L565.1404 405.3921 L564.1642 411.1408 L558.6325 412.9847 Z" clip-path="url(#clipPath2)" stroke="none"/>
    </g>
    <g fill="rgb(245,245,245)" text-rendering="geometricPrecision" shape-rendering="geometricPrecision" transform="matrix(1,0,0,1,-126,-129)" stroke="rgb(245,245,245)">
      <rect x="441" y="417" clip-path="url(#clipPath2)" width="90" rx="4" ry="4" height="60" stroke="none"/>
    </g>
    <g text-rendering="geometricPrecision" stroke-miterlimit="1.45" stroke-dasharray="6,2" shape-rendering="geometricPrecision" transform="matrix(1,0,0,1,-126,-129)" stroke-linecap="butt">
      <rect x="441" y="417" clip-path="url(#clipPath2)" fill="none" width="90" rx="4" ry="4" height="60"/>
    </g>
    <g fill="rgb(255,204,0)" text-rendering="geometricPrecision" shape-rendering="geometricPrecision" transform="matrix(1,0,0,1,-126,-129)" stroke="rgb(255,204,0)">
      <rect x="456" width="30" height="30" y="432" clip-path="url(#clipPath2)" stroke="none"/>
    </g>
    <g text-rendering="geometricPrecision" stroke-miterlimit="1.45" shape-rendering="geometricPrecision" font-family="sans-serif" transform="matrix(1,0,0,1,-126,-129)" stroke-linecap="butt">
      <text x="467.209" xml:space="preserve" y="451.1543" clip-path="url(#clipPath2)" stroke="none">E</text>
      <rect fill="none" x="456" width="30" height="30" y="432" clip-path="url(#clipPath2)"/>
    </g>
    <g fill="rgb(255,204,0)" text-rendering="geometricPrecision" shape-rendering="geometricPrecision" transform="matrix(1,0,0,1,-126,-129)" stroke="rgb(255,204,0)">
      <rect x="486" width="30" height="30" y="432" clip-path="url(#clipPath2)" stroke="none"/>
    </g>
    <g text-rendering="geometricPrecision" stroke-miterlimit="1.45" shape-rendering="geometricPrecision" font-family="sans-serif" transform="matrix(1,0,0,1,-126,-129)" stroke-linecap="butt">
      <text x="497.5488" xml:space="preserve" y="451.1543" clip-path="url(#clipPath2)" stroke="none">F</text>
      <rect fill="none" x="486" width="30" height="30" y="432" clip-path="url(#clipPath2)"/>
      <path fill="none" d="M473.5 372 L479.686 409.1162" clip-path="url(#clipPath2)"/>
      <path d="M481.0012 417.0073 L483.9604 404.3486 L479.5216 408.1298 L474.0965 405.9926 Z" clip-path="url(#clipPath2)" stroke="none"/>
    </g>
    <g fill="rgb(245,245,245)" text-rendering="geometricPrecision" shape-rendering="geometricPrecision" transform="matrix(1,0,0,1,-126,-129)" stroke="rgb(245,245,245)">
      <rect x="261" y="417" clip-path="url(#clipPath2)" width="90" rx="4" ry="4" height="60" stroke="none"/>
    </g>
    <g text-rendering="geometricPrecision" stroke-miterlimit="1.45" stroke-dasharray="6,2" shape-rendering="geometricPrecision" transform="matrix(1,0,0,1,-126,-129)" stroke-linecap="butt">
      <rect x="261" y="417" clip-path="url(#clipPath2)" fill="none" width="90" rx="4" ry="4" height="60"/>
    </g>
    <g fill="rgb(255,204,0)" text-rendering="geometricPrecision" shape-rendering="geometricPrecision" transform="matrix(1,0,0,1,-126,-129)" stroke="rgb(255,204,0)">
      <rect x="276" width="30" height="30" y="432" clip-path="url(#clipPath2)" stroke="none"/>
    </g>
    <g text-rendering="geometricPrecision" stroke-miterlimit="1.45" shape-rendering="geometricPrecision" font-family="sans-serif" transform="matrix(1,0,0,1,-126,-129)" stroke-linecap="butt">
      <text x="286.8105" xml:space="preserve" y="451.1543" clip-path="url(#clipPath2)" stroke="none">C</text>
      <rect fill="none" x="276" width="30" height="30" y="432" clip-path="url(#clipPath2)"/>
    </g>
    <g fill="rgb(255,204,0)" text-rendering="geometricPrecision" shape-rendering="geometricPrecision" transform="matrix(1,0,0,1,-126,-129)" stroke="rgb(255,204,0)">
      <rect x="306" width="30" height="30" y="432" clip-path="url(#clipPath2)" stroke="none"/>
    </g>
    <g text-rendering="geometricPrecision" stroke-miterlimit="1.45" shape-rendering="geometricPrecision" font-family="sans-serif" transform="matrix(1,0,0,1,-126,-129)" stroke-linecap="butt">
      <text x="316.3799" xml:space="preserve" y="451.1543" clip-path="url(#clipPath2)" stroke="none">D</text>
      <rect fill="none" x="306" width="30" height="30" y="432" clip-path="url(#clipPath2)"/>
      <path fill="none" d="M318.5 372 L312.314 409.1162" clip-path="url(#clipPath2)"/>
      <path d="M310.9988 417.0073 L317.9035 405.9926 L312.4784 408.1298 L308.0396 404.3486 Z" clip-path="url(#clipPath2)" stroke="none"/>
    </g>
    <g fill="rgb(245,245,245)" text-rendering="geometricPrecision" shape-rendering="geometricPrecision" transform="matrix(1,0,0,1,-126,-129)" stroke="rgb(245,245,245)">
      <rect x="141" y="417" clip-path="url(#clipPath2)" width="90" rx="4" ry="4" height="60" stroke="none"/>
    </g>
    <g text-rendering="geometricPrecision" stroke-miterlimit="1.45" stroke-dasharray="6,2" shape-rendering="geometricPrecision" transform="matrix(1,0,0,1,-126,-129)" stroke-linecap="butt">
      <rect x="141" y="417" clip-path="url(#clipPath2)" fill="none" width="90" rx="4" ry="4" height="60"/>
    </g>
    <g fill="rgb(255,204,0)" text-rendering="geometricPrecision" shape-rendering="geometricPrecision" transform="matrix(1,0,0,1,-126,-129)" stroke="rgb(255,204,0)">
      <rect x="156" width="30" height="30" y="432" clip-path="url(#clipPath2)" stroke="none"/>
    </g>
    <g text-rendering="geometricPrecision" stroke-miterlimit="1.45" shape-rendering="geometricPrecision" font-family="sans-serif" transform="matrix(1,0,0,1,-126,-129)" stroke-linecap="butt">
      <text x="166.8955" xml:space="preserve" y="451.1543" clip-path="url(#clipPath2)" stroke="none">A</text>
      <rect fill="none" x="156" width="30" height="30" y="432" clip-path="url(#clipPath2)"/>
    </g>
    <g fill="rgb(255,204,0)" text-rendering="geometricPrecision" shape-rendering="geometricPrecision" transform="matrix(1,0,0,1,-126,-129)" stroke="rgb(255,204,0)">
      <rect x="186" width="30" height="30" y="432" clip-path="url(#clipPath2)" stroke="none"/>
    </g>
    <g text-rendering="geometricPrecision" stroke-miterlimit="1.45" shape-rendering="geometricPrecision" font-family="sans-serif" transform="matrix(1,0,0,1,-126,-129)" stroke-linecap="butt">
      <text x="196.8838" xml:space="preserve" y="451.1543" clip-path="url(#clipPath2)" stroke="none">B</text>
      <rect fill="none" x="186" width="30" height="30" y="432" clip-path="url(#clipPath2)"/>
    </g>
    <g text-rendering="geometricPrecision" shape-rendering="geometricPrecision" transform="matrix(1,0,0,1,96.4229,13.5576)">
      <g clip-path="url(#clipPath3)">
        <svg xml:space="preserve" opacity="1" writing-mode="lr-tb" stop-color="rgb(0, 0, 0)" shape-rendering="auto" glyph-orientation-horizontal="0deg" color-profile="auto" lighting-color="rgb(255, 255, 255)" color="rgb(0, 0, 0)" font-weight="400" alignment-baseline="auto" font-style="normal" version="1.1" color-interpolation-filters="linearrgb" text-anchor="start" stroke-linecap="butt" color-interpolation="srgb" font-variant="normal" word-spacing="normal" fill-opacity="1" text-rendering="auto" clip-path="none" text-decoration="none" letter-spacing="normal" viewBox="0 0 57 65" glyph-orientation-vertical="auto" display="inline" font-size-adjust="none" overflow="visible" fill="rgb(0, 0, 0)" font-stretch="normal" stroke-dasharray="none" id="svg1.Ebene_1" stroke-miterlimit="4" stop-opacity="1" color-rendering="auto" font-size="12" pointer-events="visiblepainted" mask="none" direction="ltr" baseline-shift="baseline" enable-background="new 0 0 57 65" fill-rule="nonzero" image-rendering="auto" stroke-dashoffset="0" width="57px" marker-end="none" clip="auto" cursor="auto" stroke="none" filter="none" visibility="visible" kerning="auto" stroke-width="1" font-family="&quot;Arial&quot;,&quot;Helvetica&quot;,sans-serif" flood-opacity="1" clip-rule="nonzero" src="none" height="65px" unicode-bidi="normal" stroke-linejoin="miter" stroke-opacity="1" flood-color="rgb(0, 0, 0)" dominant-baseline="auto" marker-start="none" x="0px" marker-mid="none" y="0px">
<g>
	<polygon fill="#FAE1AA" points="44.365,49.031 13.101,53.422    12.191,30.465 43.408,31.092  " stroke="#F9C969" stroke-linecap="round" stroke-linejoin="round"/>
	
		<linearGradient gradientTransform="matrix(1 0 0 1 0.3203 -3091.7656)" x1="26.3398" x2="27.5807" gradientUnits="userSpaceOnUse" y1="3115.7266" y2="3145.5239" id="svg1.SVGID_1_">
		<stop offset="0.2711" style="stop-color:#FFAB4F"/>
		<stop offset="1" style="stop-color:#FFD28F"/>
	</linearGradient>
	<path fill="url(#svg1.SVGID_1_)" d="M49.529,51.225c-4.396-4.396-10.951-5.884-12.063-6.109   V37.8H19.278c0,0,0.038,6.903,0,6.868c0,0-6.874,0.997-12.308,6.432C1.378,56.691,0.5,62.77,0.5,62.77   c0,1.938,1.575,3.492,3.523,3.492h48.51c1.947,0,3.521-1.558,3.521-3.492C56.055,62.768,54.211,55.906,49.529,51.225z" stroke-miterlimit="10" stroke="#ED9135"/>
	
		<radialGradient gradientTransform="matrix(1 0 0 1 0.3203 -3091.7656)" gradientUnits="userSpaceOnUse" r="23.425" cx="27.5835" id="svg1.face_x5F_white_1_" cy="3117.4922" fx="23.0139" fy="3115.0024">
		<stop offset="0" style="stop-color:#FFD28F"/>
		<stop offset="1" style="stop-color:#FFAB4F"/>
	</radialGradient>
	<path fill="url(#svg1.face_x5F_white_1_)" id="svg1.face_x5F_white_3_" d="M43.676,23.357   c0.086,10.2-6.738,18.52-15.25,18.586c-8.5,0.068-15.464-8.146-15.55-18.344C12.794,13.4,19.618,5.079,28.123,5.012   C36.627,4.945,43.59,13.158,43.676,23.357z" stroke-miterlimit="10" stroke="#ED9135"/>
	
		<linearGradient gradientTransform="matrix(0.275 0 0 -0.2733 -1752.8849 -3351.7349)" x1="6468.501" x2="6492.1304" gradientUnits="userSpaceOnUse" y1="-12291.5195" y2="-12384.9688" id="svg1.face_highlight_1_">
		<stop offset="0" style="stop-color:#FFFFFF;stop-opacity:0.24"/>
		<stop offset="1" style="stop-color:#FFFFFF;stop-opacity:0.16"/>
	</linearGradient>
	<path fill="url(#svg1.face_highlight_1_)" id="svg1.face_highlight_3_" d="M28.415,5.625c-6.035,0.047-10.747,4.493-12.787,10.386   c-0.664,1.919-0.294,4.043,0.98,5.629c2.73,3.398,5.729,6.283,9.461,8.088c3.137,1.518,7.535,2.385,11.893,1.247   c2.274-0.592,3.988-2.459,4.375-4.766c0.187-1.094,0.293-2.289,0.283-3.553C42.54,13.244,36.729,5.56,28.415,5.625z"/>
	<path fill="#FAE1AA" d="M17.754,45.004   c-0.413-3.02-0.771-6.182-0.946-9.033c-0.574-9.349,2.886-17.721,2.886-17.721l0.882-2.078l0.94,2.419l1.872-4.956l-0.049,4.553   l1.311-0.749l0.701-1.653L25.715,18l1.055-0.988l2.13-0.729L29.84,17l0.479-2.375l0.834,2.554l1.125-1.024l1.68-0.214l1.07,1.372   l-0.243-4.246l1.883,3.967L37.611,17c0,0,5.595,10.622,3.313,29.1c2.154,0.76,4.916,2.016,7.316,3.976   c0.001-0.001,0.011-0.013,0.011-0.013L44.111,19.38C43.079,12.873,38.752,2.599,28.73,2.648   C5.153,2.568,13.025,42.055,8.945,49.334c-0.007,0.014-0.012,0.025-0.02,0.039C12.292,46.729,15.809,45.516,17.754,45.004z" stroke="#E2B354" stroke-linecap="round" stroke-linejoin="round"/>
	
		<radialGradient gradientTransform="matrix(1 0 0 -1 0.04 64.1543)" id="svg1.collar_x5F_body_1_" r="32.4004" cx="15.2412" gradientUnits="userSpaceOnUse" cy="9.9829">
		<stop offset="0" style="stop-color:#FCB57A"/>
		<stop offset="1" style="stop-color:#FF8C36"/>
	</radialGradient>
	<path fill="url(#svg1.collar_x5F_body_1_)" d="M0.5,62.768c0,1.938,1.575,3.494,3.523,3.494   h48.51c1.947,0,3.521-1.559,3.521-3.494c0,0-1.844-6.861-6.525-11.543c-4.815-4.813-11.244-6.146-11.244-6.146   c-1.771,1.655-5.61,2.802-10.063,2.802c-4.453,0-8.292-1.146-10.063-2.802c0,0-5.755,0.586-11.189,6.021   C1.378,56.689,0.5,62.768,0.5,62.768z" id="svg1.collar_x5F_body_2_" stroke="#E55E03"/>
	
		<radialGradient gradientTransform="matrix(1 0 0 -1 0.04 64.1543)" id="svg1.collar_x5F_r_1_" r="9.2823" cx="31.5801" gradientUnits="userSpaceOnUse" cy="15.957">
		<stop offset="0" style="stop-color:#FCB57A"/>
		<stop offset="1" style="stop-color:#FF8C36"/>
	</radialGradient>
	<path fill="url(#svg1.collar_x5F_r_1_)" d="M38.159,41.381c0,0-0.574,2.369-3.013,4.441   c-2.108,1.795-5.783,2.072-5.783,2.072l3.974,6.217c0,0,2.957-1.637,5.009-3.848c1.922-2.072,1.37-5.479,1.37-5.479L38.159,41.381z   " id="svg1.collar_x5F_r_2_" stroke="#E55E03"/>
	
		<radialGradient gradientTransform="matrix(1 0 0 -1 0.04 64.1543)" id="svg1.collar_x5F_l_1_" r="9.2843" cx="19.2178" gradientUnits="userSpaceOnUse" cy="15.916">
		<stop offset="0" style="stop-color:#FCB57A"/>
		<stop offset="1" style="stop-color:#FF8C36"/>
	</radialGradient>
	<path fill="url(#svg1.collar_x5F_l_1_)" d="M18.63,41.422c0,0,0.576,2.369,3.012,4.441   c2.109,1.793,5.785,2.072,5.785,2.072l-3.974,6.217c0,0-2.957-1.637-5.007-3.85c-1.922-2.072-1.37-5.48-1.37-5.48L18.63,41.422z" id="svg1.collar_x5F_l_2_" stroke="#E55E03"/>
	<circle fill="#E55E03" r="0.584" id="svg1.Knob2_2_" cx="28.258" cy="56.254" stroke="#E55E03"/>
	<circle fill="#E55E03" r="0.584" id="svg1.Knob1_2_" cx="28.297" cy="62.499" stroke="#E55E03"/>
</g>
</svg>
      </g>
    </g>
    <g text-rendering="geometricPrecision" stroke-miterlimit="1.45" shape-rendering="geometricPrecision" transform="matrix(1,0,0,1,-126,-129)" stroke-linecap="butt">
      <path fill="none" d="M276 369.8571 L227.0765 411.7916" clip-path="url(#clipPath2)"/>
      <path d="M221.0024 416.9979 L233.3675 412.9847 L227.8358 411.1408 L226.8596 405.3921 Z" clip-path="url(#clipPath2)" stroke="none"/>
      <path fill="none" d="M269.0552 177 L327.9871 177" clip-path="url(#clipPath2)"/>
      <path d="M335.9871 177 L323.9871 172 L326.9871 177 L323.9871 182 Z" clip-path="url(#clipPath2)" stroke="none"/>
    </g>
    <g fill="red" text-rendering="geometricPrecision" shape-rendering="geometricPrecision" transform="matrix(1,0,0,1,-126,-129)" stroke="red">
      <rect x="556" y="147" clip-path="url(#clipPath2)" width="90" rx="4" ry="4" height="60" stroke="none"/>
    </g>
    <g text-rendering="geometricPrecision" stroke-miterlimit="1.45" stroke-dasharray="6,2" shape-rendering="geometricPrecision" transform="matrix(1,0,0,1,-126,-129)" stroke-linecap="butt">
      <rect x="556" y="147" clip-path="url(#clipPath2)" fill="none" width="90" rx="4" ry="4" height="60"/>
    </g>
    <g fill="rgb(255,204,0)" text-rendering="geometricPrecision" shape-rendering="geometricPrecision" transform="matrix(1,0,0,1,-126,-129)" stroke="rgb(255,204,0)">
      <rect x="571" width="30" height="30" y="162" clip-path="url(#clipPath2)" stroke="none"/>
    </g>
    <g text-rendering="geometricPrecision" stroke-miterlimit="1.45" shape-rendering="geometricPrecision" font-family="sans-serif" transform="matrix(1,0,0,1,-126,-129)" stroke-linecap="butt">
      <text x="582.1826" xml:space="preserve" y="181.1543" clip-path="url(#clipPath2)" stroke="none">8</text>
      <rect fill="none" x="571" width="30" height="30" y="162" clip-path="url(#clipPath2)"/>
    </g>
    <g fill="rgb(255,204,0)" text-rendering="geometricPrecision" shape-rendering="geometricPrecision" transform="matrix(1,0,0,1,-126,-129)" stroke="rgb(255,204,0)">
      <rect x="601" width="30" height="30" y="162" clip-path="url(#clipPath2)" stroke="none"/>
    </g>
    <g text-rendering="geometricPrecision" stroke-miterlimit="1.45" shape-rendering="geometricPrecision" transform="matrix(1,0,0,1,-126,-129)" stroke-linecap="butt">
      <rect fill="none" x="601" width="30" height="30" y="162" clip-path="url(#clipPath2)"/>
    </g>
    <g fill="lime" text-rendering="geometricPrecision" shape-rendering="geometricPrecision" transform="matrix(1,0,0,1,-126,-129)" stroke="lime">
      <rect x="586" y="237" clip-path="url(#clipPath2)" width="90" rx="4" ry="4" height="60" stroke="none"/>
    </g>
    <g text-rendering="geometricPrecision" stroke-miterlimit="1.45" stroke-dasharray="6,2" shape-rendering="geometricPrecision" transform="matrix(1,0,0,1,-126,-129)" stroke-linecap="butt">
      <rect x="586" y="237" clip-path="url(#clipPath2)" fill="none" width="90" rx="4" ry="4" height="60"/>
    </g>
    <g fill="rgb(255,204,0)" text-rendering="geometricPrecision" shape-rendering="geometricPrecision" transform="matrix(1,0,0,1,-126,-129)" stroke="rgb(255,204,0)">
      <rect x="601" width="30" height="30" y="252" clip-path="url(#clipPath2)" stroke="none"/>
    </g>
    <g text-rendering="geometricPrecision" stroke-miterlimit="1.45" shape-rendering="geometricPrecision" font-family="sans-serif" transform="matrix(1,0,0,1,-126,-129)" stroke-linecap="butt">
      <text x="612.1826" xml:space="preserve" y="271.1543" clip-path="url(#clipPath2)" stroke="none">0</text>
      <rect fill="none" x="601" width="30" height="30" y="252" clip-path="url(#clipPath2)"/>
    </g>
    <g fill="rgb(255,204,0)" text-rendering="geometricPrecision" shape-rendering="geometricPrecision" transform="matrix(1,0,0,1,-126,-129)" stroke="rgb(255,204,0)">
      <rect x="631" width="30" height="30" y="252" clip-path="url(#clipPath2)" stroke="none"/>
    </g>
    <g text-rendering="geometricPrecision" stroke-miterlimit="1.45" shape-rendering="geometricPrecision" font-family="sans-serif" transform="matrix(1,0,0,1,-126,-129)" stroke-linecap="butt">
      <text x="642.1826" xml:space="preserve" y="271.1543" clip-path="url(#clipPath2)" stroke="none">1</text>
      <rect fill="none" x="631" width="30" height="30" y="252" clip-path="url(#clipPath2)"/>
      <path fill="none" d="M618.5 192 L624.686 229.1162" clip-path="url(#clipPath2)"/>
      <path d="M626.0012 237.0073 L628.9604 224.3486 L624.5216 228.1298 L619.0965 225.9926 Z" clip-path="url(#clipPath2)" stroke="none"/>
      <path fill="none" d="M601 271.3548 L358.6602 341.7115" clip-path="url(#clipPath2)"/>
      <path d="M350.9774 343.942 L363.8956 345.398 L359.6205 341.4327 L361.1075 335.7946 Z" clip-path="url(#clipPath2)" stroke="none"/>
    </g>
    <g fill="lime" text-rendering="geometricPrecision" shape-rendering="geometricPrecision" transform="matrix(1,0,0,1,-126,-129)" stroke="lime">
      <rect x="676" y="327" clip-path="url(#clipPath2)" width="90" rx="4" ry="4" height="60" stroke="none"/>
    </g>
    <g text-rendering="geometricPrecision" stroke-miterlimit="1.45" stroke-dasharray="6,2" shape-rendering="geometricPrecision" transform="matrix(1,0,0,1,-126,-129)" stroke-linecap="butt">
      <rect x="676" y="327" clip-path="url(#clipPath2)" fill="none" width="90" rx="4" ry="4" height="60"/>
    </g>
    <g fill="rgb(255,204,0)" text-rendering="geometricPrecision" shape-rendering="geometricPrecision" transform="matrix(1,0,0,1,-126,-129)" stroke="rgb(255,204,0)">
      <rect x="691" width="30" height="30" y="342" clip-path="url(#clipPath2)" stroke="none"/>
    </g>
    <g text-rendering="geometricPrecision" stroke-miterlimit="1.45" shape-rendering="geometricPrecision" font-family="sans-serif" transform="matrix(1,0,0,1,-126,-129)" stroke-linecap="butt">
      <text x="702.1826" xml:space="preserve" y="361.1543" clip-path="url(#clipPath2)" stroke="none">0</text>
      <rect fill="none" x="691" width="30" height="30" y="342" clip-path="url(#clipPath2)"/>
    </g>
    <g fill="rgb(255,204,0)" text-rendering="geometricPrecision" shape-rendering="geometricPrecision" transform="matrix(1,0,0,1,-126,-129)" stroke="rgb(255,204,0)">
      <rect x="721" width="30" height="30" y="342" clip-path="url(#clipPath2)" stroke="none"/>
    </g>
    <g text-rendering="geometricPrecision" stroke-miterlimit="1.45" shape-rendering="geometricPrecision" font-family="sans-serif" transform="matrix(1,0,0,1,-126,-129)" stroke-linecap="butt">
      <text x="732.1826" xml:space="preserve" y="361.1543" clip-path="url(#clipPath2)" stroke="none">1</text>
      <rect fill="none" x="721" width="30" height="30" y="342" clip-path="url(#clipPath2)"/>
      <path fill="none" d="M658.5 282 L690.8846 320.8615" clip-path="url(#clipPath2)"/>
      <path d="M696.0061 327.0073 L692.165 314.5877 L690.2444 320.0933 L684.4828 320.9896 Z" clip-path="url(#clipPath2)" stroke="none"/>
      <path fill="none" d="M691 363.1364 L538.4233 425.5541" clip-path="url(#clipPath2)"/>
      <path d="M531.0189 428.5832 L544.0187 428.6673 L539.3488 425.1755 L540.2323 419.4118 Z" clip-path="url(#clipPath2)" stroke="none"/>
    </g>
    <g fill="rgb(245,245,245)" text-rendering="geometricPrecision" shape-rendering="geometricPrecision" transform="matrix(1,0,0,1,-126,-129)" stroke="rgb(245,245,245)">
      <rect x="721" y="417" clip-path="url(#clipPath2)" width="90" rx="4" ry="4" height="60" stroke="none"/>
    </g>
    <g text-rendering="geometricPrecision" stroke-miterlimit="1.45" stroke-dasharray="6,2" shape-rendering="geometricPrecision" transform="matrix(1,0,0,1,-126,-129)" stroke-linecap="butt">
      <rect x="721" y="417" clip-path="url(#clipPath2)" fill="none" width="90" rx="4" ry="4" height="60"/>
    </g>
    <g fill="rgb(255,204,0)" text-rendering="geometricPrecision" shape-rendering="geometricPrecision" transform="matrix(1,0,0,1,-126,-129)" stroke="rgb(255,204,0)">
      <rect x="736" width="30" height="30" y="432" clip-path="url(#clipPath2)" stroke="none"/>
    </g>
    <g text-rendering="geometricPrecision" stroke-miterlimit="1.45" shape-rendering="geometricPrecision" font-family="sans-serif" transform="matrix(1,0,0,1,-126,-129)" stroke-linecap="butt">
      <text x="746.3506" xml:space="preserve" y="451.1543" clip-path="url(#clipPath2)" stroke="none">G</text>
      <rect fill="none" x="736" width="30" height="30" y="432" clip-path="url(#clipPath2)"/>
    </g>
    <g fill="rgb(255,204,0)" text-rendering="geometricPrecision" shape-rendering="geometricPrecision" transform="matrix(1,0,0,1,-126,-129)" stroke="rgb(255,204,0)">
      <rect x="766" width="30" height="30" y="432" clip-path="url(#clipPath2)" stroke="none"/>
    </g>
    <g text-rendering="geometricPrecision" stroke-miterlimit="1.45" shape-rendering="geometricPrecision" font-family="sans-serif" transform="matrix(1,0,0,1,-126,-129)" stroke-linecap="butt">
      <text x="776.4883" xml:space="preserve" y="451.1543" clip-path="url(#clipPath2)" stroke="none">H</text>
      <rect fill="none" x="766" width="30" height="30" y="432" clip-path="url(#clipPath2)"/>
    </g>
    <g text-rendering="geometricPrecision" shape-rendering="geometricPrecision" transform="matrix(1,0,0,1,566.7229,12.3976)">
      <g clip-path="url(#clipPath4)">
        <svg xml:space="preserve" opacity="1" writing-mode="lr-tb" stop-color="rgb(0, 0, 0)" shape-rendering="auto" glyph-orientation-horizontal="0deg" color-profile="auto" lighting-color="rgb(255, 255, 255)" color="rgb(0, 0, 0)" font-weight="400" alignment-baseline="auto" font-style="normal" version="1.1" color-interpolation-filters="linearrgb" text-anchor="start" stroke-linecap="butt" color-interpolation="srgb" font-variant="normal" word-spacing="normal" fill-opacity="1" text-rendering="auto" clip-path="none" text-decoration="none" letter-spacing="normal" viewBox="0 0 57 63" glyph-orientation-vertical="auto" display="inline" font-size-adjust="none" overflow="visible" fill="rgb(0, 0, 0)" font-stretch="normal" stroke-dasharray="none" id="svg2.Ebene_1" stroke-miterlimit="4" stop-opacity="1" color-rendering="auto" font-size="12" pointer-events="visiblepainted" mask="none" direction="ltr" baseline-shift="baseline" enable-background="new 0 0 57 63" fill-rule="nonzero" image-rendering="auto" stroke-dashoffset="0" width="57px" marker-end="none" clip="auto" cursor="auto" stroke="none" filter="none" visibility="visible" kerning="auto" stroke-width="1" font-family="&quot;Arial&quot;,&quot;Helvetica&quot;,sans-serif" flood-opacity="1" clip-rule="nonzero" src="none" height="63px" unicode-bidi="normal" stroke-linejoin="miter" stroke-opacity="1" flood-color="rgb(0, 0, 0)" dominant-baseline="auto" marker-start="none" x="0px" marker-mid="none" y="0px">
<g>
	
		<linearGradient gradientTransform="matrix(1 0 0 1 0.1602 -1546.3828)" x1="26.5" x2="27.741" gradientUnits="userSpaceOnUse" y1="1570.3457" y2="1600.1431" id="svg2.SVGID_1_">
		<stop offset="0.2711" style="stop-color:#FFAB4F"/>
		<stop offset="1" style="stop-color:#FFD28F"/>
	</linearGradient>
	<path fill="url(#svg2.SVGID_1_)" d="M49.529,51.225c-4.396-4.396-10.951-5.884-12.063-6.109   V37.8H19.278c0,0,0.038,6.903,0,6.868c0,0-6.874,0.997-12.308,6.432C1.378,56.691,0.5,62.77,0.5,62.77   c0,1.938,1.575,3.492,3.523,3.492h48.51c1.947,0,3.521-1.558,3.521-3.492C56.055,62.768,54.211,55.906,49.529,51.225z" stroke-miterlimit="10" stroke="#ED9135"/>
	
		<radialGradient gradientTransform="matrix(1 0 0 1 0.1602 -1546.3828)" gradientUnits="userSpaceOnUse" r="23.4243" cx="27.7427" id="svg2.face_x5F_white_1_" cy="1572.1094" fx="23.1732" fy="1569.6195">
		<stop offset="0" style="stop-color:#FFD28F"/>
		<stop offset="1" style="stop-color:#FFAB4F"/>
	</radialGradient>
	<path fill="url(#svg2.face_x5F_white_1_)" id="svg2.face_x5F_white_3_" d="M43.676,23.357   c0.086,10.2-6.738,18.52-15.247,18.586c-8.502,0.068-15.466-8.146-15.552-18.344C12.794,13.4,19.618,5.079,28.123,5.012   C36.627,4.945,43.59,13.158,43.676,23.357z" stroke-miterlimit="10" stroke="#ED9135"/>
	
		<linearGradient gradientTransform="matrix(0.275 0 0 -0.2733 -977.2951 -1807.6279)" x1="3646.5117" x2="3670.1414" gradientUnits="userSpaceOnUse" y1="-6644.2471" y2="-6737.6978" id="svg2.face_highlight_1_">
		<stop offset="0" style="stop-color:#FFFFFF;stop-opacity:0.24"/>
		<stop offset="1" style="stop-color:#FFFFFF;stop-opacity:0.16"/>
	</linearGradient>
	<path fill="url(#svg2.face_highlight_1_)" id="svg2.face_highlight_3_" d="M27.958,6.333c-6.035,0.047-10.747,4.493-12.787,10.386   c-0.664,1.919-0.294,4.043,0.98,5.629c2.73,3.398,5.729,6.283,9.461,8.088c3.137,1.518,7.535,2.384,11.893,1.247   c2.274-0.592,3.988-2.459,4.375-4.766c0.183-1.094,0.293-2.289,0.283-3.553C42.083,13.952,36.271,6.268,27.958,6.333z"/>
	
		<linearGradient gradientTransform="matrix(0.9852 0 0 -0.9852 -18.8086 -1490.5736)" x1="79.9941" x2="15.6017" gradientUnits="userSpaceOnUse" y1="-1569.4717" y2="-1569.4717" id="svg2.body_1_">
		<stop offset="0" style="stop-color:#49AD33"/>
		<stop offset="1" style="stop-color:#C2DA92"/>
	</linearGradient>
	<path fill="url(#svg2.body_1_)" d="M0.5,62.768c0,1.938,1.575,3.494,3.523,3.494h48.51   c1.947,0,3.521-1.559,3.521-3.494c0,0-1.844-6.861-6.525-11.543c-4.815-4.813-11.244-6.146-11.244-6.146   c-1.771,1.655-5.61,2.802-10.063,2.802c-4.453,0-8.292-1.146-10.063-2.802c0,0-5.755,0.586-11.189,6.021   C1.378,56.689,0.5,62.768,0.5,62.768z" id="svg2.body_11_" stroke="#008D33"/>
	
		<linearGradient gradientTransform="matrix(1 0 0 1 0.1602 -1546.3828)" x1="41.248" x2="15.2274" gradientUnits="userSpaceOnUse" y1="1593.0166" y2="1593.0166" id="svg2.turtleneck_1_">
		<stop offset="0" style="stop-color:#49AD33"/>
		<stop offset="1" style="stop-color:#C2DA92"/>
	</linearGradient>
	<path fill="url(#svg2.turtleneck_1_)" d="M39.715,44.786l-1.557-3.405c0,0-0.574,2.369-3.012,4.441   c-2.109,1.795-6.785,2.072-6.785,2.072s-4.753-0.356-6.722-2.031c-2.436-2.072-3.012-4.441-3.012-4.441l-1.555,3.404   c0,0-0.552,1.404,1.37,3.479c1.025,1.105,5.203,3.611,9.682,3.582c4.479-0.029,9.264-2.594,10.218-3.623   C40.266,46.191,39.715,44.786,39.715,44.786z" id="svg2.turtleneck_8_" stroke="#008D33"/>
	<path stroke-linecap="round" fill="#9B9B9B" stroke-linejoin="round" d="   M28.276,15.5c5.635,0,10.826,1.416,14.979,3.794c-1.614-8.228-7.794-14.34-15.132-14.282c-7.272,0.057-13.299,6.155-14.846,14.294   C17.434,16.921,22.632,15.5,28.276,15.5z" id="svg2.wh2_1_" stroke="#4B4B4B" stroke-miterlimit="10"/>
	<path stroke-linecap="round" fill="#9B9B9B" stroke-linejoin="round" d="   M28.278,20.808c5.662,0,11.937,0.811,16.391,2.207c-0.11-2.059-0.274-2.826-0.413-3.72c-4.154-2.379-10.344-3.795-15.98-3.795   c-5.644,0-11.842,1.421-16,3.807c-0.228,1.197-0.362,2.436-0.388,3.707C16.343,21.618,22.618,20.808,28.278,20.808z" id="svg2.wh1_1_" stroke="#4B4B4B" stroke-miterlimit="10"/>
</g>
</svg>
      </g>
    </g>
    <g text-rendering="geometricPrecision" stroke-miterlimit="1.45" shape-rendering="geometricPrecision" transform="matrix(1,0,0,1,-126,-129)" stroke-linecap="butt">
      <path fill="none" d="M741 372 L753.4726 409.4178" clip-path="url(#clipPath2)"/>
      <path d="M756.0024 417.0073 L756.9511 404.042 L753.1564 408.4691 L747.4643 407.2043 Z" clip-path="url(#clipPath2)" stroke="none"/>
      <path fill="none" d="M707.6113 177 L654.0027 177" clip-path="url(#clipPath2)"/>
      <path d="M646.0027 177 L658.0027 182 L655.0027 177 L658.0027 172 Z" clip-path="url(#clipPath2)" stroke="none"/>
    </g>
  </g>
</svg>
